<?xml version="1.0" encoding="UTF-8"?><svg id="Layer_1" xmlns="http://www.w3.org/2000/svg" viewBox="0 0 300 300"><defs><style>.cls-1{fill:#85e6e1;}</style></defs><path class="cls-1" d="M36.26,128.62c-.49,.55-.99,1.06-1.5,1.53-2.37-3.81-5.45-6.15-8.76-6.15-2.45,0-4.78,1.28-6.78,3.5-.24-.73-.45-1.51-.62-2.32,2.19-2.04,4.71-3.18,7.4-3.18,3.97,0,7.56,2.48,10.26,6.62Z"/><path class="cls-1" d="M128.62,261.74c.55,.49,1.06,.99,1.53,1.5-3.81,2.37-6.15,5.45-6.15,8.76,0,2.45,1.28,4.78,3.5,6.78-.73,.24-1.51,.45-2.32,.62-2.04-2.19-3.18-4.71-3.18-7.4,0-3.97,2.48-7.56,6.62-10.26Z"/><path class="cls-1" d="M35.47,164.44c-.29,.68-.61,1.33-.95,1.94-3.44-2.9-7.09-4.17-10.23-3.15-2.33,.76-4.14,2.7-5.36,5.43-.46-.62-.9-1.3-1.31-2.04,1.46-2.6,3.5-4.46,6.06-5.29,3.77-1.23,7.93,.02,11.79,3.11Z"/><path class="cls-1" d="M18.87,170.09c.11,.14,.22,.28,.35,.41-.24,.73-.45,1.51-.62,2.32-.13-.11-.27-.24-.4-.38,.18-.83,.4-1.61,.67-2.35Z"/><path class="cls-1" d="M18.52,169.67c.11,.15,.22,.28,.35,.42-.27,.74-.49,1.52-.67,2.35-.13-.12-.26-.26-.39-.4,.19-.84,.43-1.63,.71-2.37Z"/><path class="cls-1" d="M18.52,169.67c-.28,.74-.52,1.53-.71,2.37-.58-.61-1.12-1.28-1.63-2.01,.26-.85,.57-1.65,.93-2.4,.44,.74,.91,1.42,1.41,2.04Z"/><path class="cls-1" d="M16.81,167.13c.09,.17,.19,.34,.3,.5-.36,.75-.67,1.55-.93,2.4-.13-.16-.24-.34-.35-.51,.29-.84,.61-1.64,.98-2.39Z"/><path class="cls-1" d="M16.53,131.38c-2.48,4.56-4.03,10.82-4.03,17.62s1.55,13.06,4.03,17.62c-.39,.75-.74,1.55-1.03,2.4-3.09-4.91-5-12-5-20.02s1.91-15.11,5-20.02c.29,.85,.64,1.65,1.03,2.4Z"/><path class="cls-1" d="M16.53,166.62c.09,.17,.18,.34,.28,.51-.37,.75-.69,1.55-.98,2.39-.12-.16-.23-.33-.33-.5,.29-.85,.64-1.65,1.03-2.4Z"/><path class="cls-1" d="M37.84,166.6c-.33,.68-.68,1.33-1.05,1.95-.51-.55-1.02-1.06-1.54-1.53,.35-.61,.68-1.25,.99-1.93,.54,.46,1.07,.97,1.6,1.51Z"/><path class="cls-1" d="M38.06,166.14c-.07,.16-.14,.31-.22,.46-.53-.54-1.06-1.05-1.6-1.51,.07-.15,.14-.31,.21-.47,.55,.47,1.08,.97,1.61,1.52Z"/><path class="cls-1" d="M38.27,165.66c-.06,.16-.13,.32-.21,.48-.53-.55-1.06-1.05-1.61-1.52,.07-.15,.14-.31,.2-.47,.55,.47,1.09,.97,1.62,1.51Z"/><path class="cls-1" d="M38.27,132.34c2.04,4.56,3.23,10.32,3.23,16.66s-1.19,12.1-3.23,16.66c-.53-.54-1.07-1.04-1.62-1.51,1.78-4.24,2.85-9.51,2.85-15.15s-1.07-10.91-2.85-15.15c.55-.47,1.09-.97,1.62-1.51Z"/><path class="cls-1" d="M36.53,168.97c-.08,.14-.17,.28-.27,.41-.49-.55-.99-1.06-1.5-1.53,.09-.13,.17-.27,.25-.41,.52,.47,1.02,.98,1.52,1.53Z"/><path class="cls-1" d="M36.79,168.55c-.08,.15-.17,.28-.26,.42-.5-.55-1-1.06-1.52-1.53,.09-.14,.17-.28,.24-.42,.52,.47,1.03,.98,1.54,1.53Z"/><path class="cls-1" d="M34.76,167.85c.51,.47,1.01,.98,1.5,1.53-2.7,4.14-6.29,6.62-10.26,6.62-2.69,0-5.21-1.14-7.4-3.18,.17-.81,.38-1.59,.62-2.32,2,2.22,4.33,3.5,6.78,3.5,3.31,0,6.39-2.34,8.76-6.15Z"/><path class="cls-1" d="M45.81,198.77c-.08,.73-.18,1.44-.31,2.13-4.17-1.69-8.03-1.77-10.7,.17-1.98,1.44-3.11,3.84-3.43,6.81-.63-.45-1.25-.95-1.87-1.52,.58-2.93,1.94-5.33,4.12-6.91,3.21-2.33,7.56-2.43,12.19-.68Z"/><path class="cls-1" d="M32.35,211.96c-.17-.08-.33-.16-.5-.25-.09-.84-.12-1.65-.09-2.43,.15,.1,.31,.19,.46,.28,0,.77,.03,1.57,.13,2.4Z"/><path class="cls-1" d="M31.76,209.28c-.03,.78,0,1.59,.09,2.43-.17-.08-.33-.17-.5-.27-.07-.85-.09-1.67-.07-2.47,.16,.11,.32,.21,.48,.31Z"/><path class="cls-1" d="M31.28,208.97c-.02,.8,0,1.62,.07,2.47-.73-.39-1.45-.85-2.16-1.39-.02-.9,.03-1.76,.13-2.58,.65,.56,1.3,1.06,1.96,1.5Z"/><path class="cls-1" d="M31.31,208.43l-.03,.54c-.66-.44-1.31-.94-1.96-1.5,.03-.19,.05-.37,.08-.55,.63,.56,1.27,1.06,1.91,1.51Z"/><path class="cls-1" d="M29.32,207.47c-.1,.82-.15,1.68-.13,2.58-.17-.12-.33-.24-.5-.37,.01-.9,.07-1.77,.19-2.6,.14,.14,.29,.27,.44,.39Z"/><path class="cls-1" d="M28.88,207.08c-.12,.83-.18,1.7-.19,2.6-.15-.13-.31-.25-.47-.38,.02-.91,.1-1.78,.24-2.61,.14,.14,.28,.27,.42,.39Z"/><path class="cls-1" d="M28.46,206.69c-.14,.83-.22,1.7-.24,2.61-4.45-3.71-8.46-9.87-10.94-17.5s-2.86-14.97-1.43-20.59c.54,.72,1.12,1.38,1.72,1.97-.95,5.1-.49,11.54,1.61,18s5.51,11.94,9.28,15.51Z"/><path class="cls-1" d="M48.79,199.58c-.02,.18-.04,.35-.07,.53-.66-.36-1.33-.68-1.99-.97,.02-.17,.04-.33,.05-.5,.67,.27,1.34,.59,2.01,.94Z"/><path class="cls-1" d="M46.76,182.22c1.96,6.03,2.61,11.89,2.09,16.85-.67-.35-1.35-.66-2.02-.94,.38-4.58-.23-9.93-1.97-15.29s-4.39-10.05-7.4-13.53c.39-.62,.75-1.27,1.09-1.95,3.33,3.71,6.25,8.83,8.21,14.86Z"/><path class="cls-1" d="M48.85,199.07l-.06,.51c-.67-.35-1.34-.67-2.01-.94,.02-.17,.04-.34,.05-.51,.67,.28,1.35,.59,2.02,.94Z"/><path class="cls-1" d="M48.32,202.27c-.03,.16-.07,.32-.11,.48-.65-.37-1.29-.7-1.93-.99,.04-.15,.07-.32,.1-.48,.64,.29,1.29,.62,1.94,.99Z"/><path class="cls-1" d="M48.72,200.11c-.1,.74-.24,1.46-.4,2.16-.65-.37-1.3-.7-1.94-.99,.15-.69,.26-1.4,.35-2.14,.66,.29,1.33,.61,1.99,.97Z"/><path class="cls-1" d="M46.17,202.23c.63,.3,1.27,.63,1.91,1-1.3,4.77-3.94,8.23-7.72,9.46-2.56,.83-5.3,.52-8-.73h-.01c-.1-.83-.14-1.63-.13-2.4,2.59,1.48,5.2,1.99,7.53,1.23,3.14-1.02,5.34-4.2,6.42-8.56Z"/><path class="cls-1" d="M48.21,202.75c-.04,.16-.08,.32-.13,.48-.64-.37-1.28-.7-1.91-1,.04-.15,.08-.31,.11-.47,.64,.29,1.28,.62,1.93,.99Z"/><path class="cls-1" d="M66.23,228.23c.16,.72,.28,1.43,.36,2.12-4.48-.33-8.17,.79-10.11,3.46-1.44,1.98-1.77,4.62-1.15,7.54-.74-.23-1.5-.52-2.26-.87-.35-2.96,.21-5.66,1.79-7.84,2.33-3.21,6.44-4.65,11.37-4.41Z"/><path class="cls-1" d="M53.91,244.09c-.2-.06-.39-.13-.58-.2-.27-.86-.48-1.7-.62-2.53,.18,.08,.35,.16,.53,.23,.16,.82,.38,1.66,.67,2.5Z"/><path class="cls-1" d="M57.52,244.93c-.19-.02-.38-.05-.57-.08-.33-.78-.61-1.55-.83-2.3,.18,.05,.35,.09,.53,.12,.23,.74,.52,1.5,.87,2.26Z"/><path class="cls-1" d="M56.95,244.85l-.54-.09c-.33-.79-.61-1.57-.83-2.34,.18,.04,.36,.09,.54,.13,.22,.75,.5,1.52,.83,2.3Z"/><path class="cls-1" d="M55.58,242.42c.22,.77,.5,1.55,.83,2.34-.82-.16-1.66-.38-2.5-.67-.29-.84-.51-1.68-.67-2.5,.79,.33,1.57,.61,2.34,.83Z"/><path class="cls-1" d="M52.18,241.11c.12,.84,.32,1.7,.57,2.56-5.38-2.16-11.09-6.78-15.8-13.26-4.72-6.49-7.34-13.35-7.72-19.13,.74,.52,1.49,.96,2.25,1.34,.67,5.14,3.1,11.12,7.09,16.61,3.99,5.5,8.93,9.65,13.61,11.88Z"/><path class="cls-1" d="M53.33,243.89c-.2-.07-.39-.15-.58-.22-.25-.86-.45-1.72-.57-2.56,.18,.09,.35,.17,.53,.25,.14,.83,.35,1.67,.62,2.53Z"/><path class="cls-1" d="M69.7,230.77c.02,.17,.04,.34,.04,.51-.72-.16-1.44-.28-2.13-.35-.01-.16-.02-.33-.05-.49,.7,.07,1.42,.18,2.14,.33Z"/><path class="cls-1" d="M69.32,228.08c.04,.17,.07,.34,.09,.51-.74-.14-1.47-.23-2.18-.29-.03-.17-.06-.33-.11-.5,.72,.05,1.45,.14,2.2,.28Z"/><path class="cls-1" d="M69.41,228.59c.14,.74,.23,1.47,.29,2.18-.72-.15-1.44-.26-2.14-.33-.07-.7-.18-1.42-.33-2.14,.71,.06,1.44,.15,2.18,.29Z"/><path class="cls-1" d="M69.21,227.56c.04,.17,.08,.35,.11,.52-.75-.14-1.48-.23-2.2-.28-.03-.16-.06-.33-.1-.49,.72,.04,1.45,.13,2.19,.25Z"/><path class="cls-1" d="M69.77,231.77c.24,4.93-1.2,9.04-4.41,11.37-2.18,1.58-4.88,2.14-7.84,1.79-.35-.76-.64-1.52-.87-2.26,2.92,.62,5.56,.29,7.54-1.15,2.67-1.94,3.79-5.63,3.46-10.11,.69,.08,1.4,.2,2.12,.36Z"/><path class="cls-1" d="M69.74,231.28c.02,.17,.03,.33,.03,.49-.72-.16-1.43-.28-2.12-.36,0-.16-.02-.32-.04-.48,.69,.07,1.41,.19,2.13,.35Z"/><path class="cls-1" d="M69.21,227.56c-.74-.12-1.47-.21-2.19-.25-1.05-4.48-3.29-9.38-6.61-13.95-3.31-4.56-7.28-8.2-11.21-10.59,.17-.7,.31-1.43,.43-2.17,4.32,2.5,8.67,6.46,12.4,11.59s6.15,10.49,7.18,15.37Z"/><path class="cls-1" d="M98.86,251.27c.06,.15,.12,.31,.18,.46-.73,.08-1.44,.19-2.12,.32-.06-.14-.13-.28-.2-.43,.69-.15,1.4-.26,2.14-.35Z"/><path class="cls-1" d="M97.65,248.83c.09,.15,.17,.3,.24,.45-.74,.1-1.46,.24-2.16,.4-.07-.15-.16-.3-.25-.44,.7-.17,1.42-.3,2.17-.41Z"/><path class="cls-1" d="M91.64,268.5c-.18,.04-.37,.07-.56,.1-.56-.63-1.06-1.27-1.51-1.91,.19-.02,.37-.04,.55-.06,.45,.63,.95,1.25,1.52,1.87Z"/><path class="cls-1" d="M89.03,266.72c.44,.66,.94,1.31,1.5,1.96-.82,.1-1.68,.15-2.58,.13-.54-.71-1-1.43-1.39-2.16,.85,.07,1.67,.09,2.47,.07Z"/><path class="cls-1" d="M87.33,268.8c-.2,0-.4-.02-.61-.03-.52-.74-.96-1.49-1.34-2.25,.2,.04,.39,.06,.58,.08,.39,.74,.85,1.47,1.37,2.2Z"/><path class="cls-1" d="M87.95,268.81c-.2,.01-.41,0-.62,0-.52-.73-.98-1.46-1.37-2.2,.2,.02,.4,.04,.6,.05,.39,.73,.85,1.45,1.39,2.16Z"/><path class="cls-1" d="M91.08,268.6c-.18,.03-.36,.05-.55,.08-.56-.65-1.06-1.3-1.5-1.96l.54-.03c.45,.64,.95,1.28,1.51,1.91Z"/><path class="cls-1" d="M85.38,266.52c.38,.76,.82,1.51,1.34,2.25-5.78-.38-12.64-3-19.13-7.72-6.48-4.71-11.1-10.42-13.26-15.8,.86,.25,1.72,.45,2.56,.57,2.23,4.68,6.38,9.62,11.88,13.61,5.49,3.99,11.47,6.42,16.61,7.09Z"/><path class="cls-1" d="M99.23,252.19c1.75,4.63,1.65,8.98-.68,12.19-1.58,2.18-3.98,3.54-6.91,4.12-.57-.62-1.07-1.24-1.52-1.87,2.97-.32,5.37-1.45,6.81-3.43,1.94-2.67,1.86-6.53,.17-10.7,.69-.13,1.4-.23,2.13-.31Z"/><path class="cls-1" d="M99.04,251.73c.07,.16,.13,.31,.19,.46-.73,.08-1.44,.18-2.13,.31l-.18-.45c.68-.13,1.39-.24,2.12-.32Z"/><path class="cls-1" d="M97.4,248.37c-.74,.12-1.47,.26-2.17,.43-2.39-3.93-6.03-7.9-10.59-11.21-4.57-3.32-9.47-5.56-13.95-6.61-.04-.72-.13-1.45-.25-2.19,4.88,1.03,10.24,3.45,15.37,7.18s9.09,8.08,11.59,12.4Z"/><path class="cls-1" d="M97.89,249.28c.36,.66,.68,1.33,.97,1.99-.74,.09-1.45,.2-2.14,.35-.29-.64-.62-1.29-.99-1.94,.7-.16,1.42-.3,2.16-.4Z"/><path class="cls-1" d="M97.4,248.37c.08,.16,.17,.31,.25,.46-.75,.11-1.47,.24-2.17,.41-.08-.15-.16-.29-.25-.44,.7-.17,1.43-.31,2.17-.43Z"/><path class="cls-1" d="M94.77,249.92c.37,.64,.7,1.28,1,1.91-4.36,1.08-7.54,3.28-8.56,6.42-.76,2.33-.25,4.94,1.23,7.53-.77,.01-1.57-.03-2.4-.13h0c-1.25-2.71-1.56-5.45-.73-8.01,1.23-3.78,4.69-6.42,9.46-7.72Z"/><path class="cls-1" d="M282.5,128.98c3.09,4.91,5,12,5,20.02s-1.91,15.11-5,20.02c-.29-.85-.64-1.65-1.03-2.4,2.48-4.56,4.03-10.82,4.03-17.62s-1.55-13.06-4.03-17.62c.39-.75,.74-1.55,1.03-2.4Z"/><path class="cls-1" d="M282.17,128.48c.12,.16,.23,.33,.33,.5-.29,.85-.64,1.65-1.03,2.4-.09-.17-.18-.34-.28-.51,.37-.75,.69-1.55,.98-2.39Z"/><path class="cls-1" d="M280.72,106.2c2.48,7.63,2.86,14.97,1.43,20.59-.54-.72-1.12-1.38-1.72-1.97,.95-5.1,.49-11.54-1.61-18s-5.51-11.94-9.28-15.51c.14-.83,.22-1.7,.24-2.61,4.45,3.71,8.46,9.87,10.94,17.5Z"/><path class="cls-1" d="M282.15,171.21c1.43,5.62,1.05,12.96-1.43,20.59s-6.49,13.79-10.94,17.5c-.02-.91-.1-1.78-.24-2.61,3.77-3.57,7.18-9.05,9.28-15.51s2.56-12.9,1.61-18c.6-.59,1.18-1.25,1.72-1.97Z"/><path class="cls-1" d="M281.99,170.61c.06,.19,.11,.4,.16,.6-.54,.72-1.12,1.38-1.72,1.97-.03-.2-.07-.39-.11-.58,.59-.6,1.15-1.27,1.67-1.99Z"/><path class="cls-1" d="M281.82,127.97c.13,.16,.24,.34,.35,.51-.29,.84-.61,1.64-.98,2.39-.09-.17-.19-.34-.3-.5,.36-.75,.67-1.55,.93-2.4Z"/><path class="cls-1" d="M281.82,170.03c.06,.19,.12,.38,.17,.58-.52,.72-1.08,1.39-1.67,1.99-.04-.19-.08-.38-.13-.56,.58-.61,1.12-1.28,1.63-2.01Z"/><path class="cls-1" d="M281.82,127.97c-.26,.85-.57,1.65-.93,2.4-.44-.74-.91-1.42-1.41-2.04,.28-.74,.52-1.53,.71-2.37,.58,.61,1.12,1.28,1.63,2.01Z"/><path class="cls-1" d="M280.89,167.63c.36,.75,.67,1.55,.93,2.4-.51,.73-1.05,1.4-1.63,2.01-.19-.84-.43-1.63-.71-2.37,.5-.62,.97-1.3,1.41-2.04Z"/><path class="cls-1" d="M280.64,167.12c.09,.16,.17,.33,.25,.51-.44,.74-.91,1.42-1.41,2.04-.06-.17-.13-.35-.19-.52,.47-.62,.93-1.3,1.35-2.03Z"/><path class="cls-1" d="M280.38,166.62c.09,.16,.18,.33,.26,.5-.42,.73-.88,1.41-1.35,2.03-.07-.16-.14-.33-.22-.49,.46-.62,.9-1.3,1.31-2.04Z"/><path class="cls-1" d="M279.8,125.56c.13,.12,.26,.26,.39,.4-.19,.84-.43,1.63-.71,2.37-.11-.15-.22-.28-.35-.42,.27-.74,.49-1.52,.67-2.35Z"/><path class="cls-1" d="M279.4,125.18c.13,.11,.27,.24,.4,.38-.18,.83-.4,1.61-.67,2.35-.11-.14-.22-.28-.35-.41,.24-.73,.45-1.51,.62-2.32Z"/><path class="cls-1" d="M279.07,129.34c.46,.62,.9,1.3,1.31,2.04-1.46,2.6-3.5,4.46-6.06,5.29-3.77,1.23-7.93-.02-11.79-3.11,.29-.68,.61-1.33,.95-1.94,3.44,2.9,7.09,4.17,10.23,3.15,2.33-.76,4.14-2.7,5.36-5.43Z"/><path class="cls-1" d="M280.38,166.62c-.41,.74-.85,1.42-1.31,2.04-1.22-2.73-3.03-4.67-5.36-5.43-3.14-1.02-6.79,.25-10.23,3.15-.34-.61-.66-1.26-.95-1.94,3.86-3.09,8.02-4.34,11.79-3.11,2.56,.83,4.6,2.69,6.06,5.29Z"/><path class="cls-1" d="M279.4,125.18c-.17,.81-.38,1.59-.62,2.32-2-2.22-4.33-3.5-6.78-3.5-3.31,0-6.39,2.34-8.76,6.15-.51-.47-1.01-.98-1.5-1.53,2.7-4.14,6.29-6.62,10.26-6.62,2.69,0,5.21,1.14,7.4,3.18Z"/><path class="cls-1" d="M278.78,170.5c.24,.73,.45,1.51,.62,2.32-2.19,2.04-4.71,3.18-7.4,3.18-3.97,0-7.56-2.48-10.26-6.62,.49-.55,.99-1.06,1.5-1.53,2.37,3.81,5.45,6.15,8.76,6.15,2.45,0,4.78-1.28,6.78-3.5Z"/><path class="cls-1" d="M269.31,88.32c.15,.13,.31,.25,.47,.38-.02,.91-.1,1.78-.24,2.61-.14-.14-.28-.27-.42-.39,.12-.83,.18-1.7,.19-2.6Z"/><path class="cls-1" d="M268.81,87.95c.17,.12,.33,.24,.5,.37,0,.9-.07,1.77-.19,2.6-.14-.14-.29-.27-.44-.39,.1-.82,.15-1.68,.13-2.58Z"/><path class="cls-1" d="M268.81,87.95c.02,.9-.03,1.76-.13,2.58-.65-.56-1.3-1.06-1.96-1.5,.02-.8,0-1.62-.07-2.47,.73,.39,1.45,.85,2.16,1.39Z"/><path class="cls-1" d="M268.68,207.47c.1,.82,.15,1.68,.13,2.58-.71,.54-1.43,1-2.16,1.39,.07-.85,.09-1.67,.07-2.47,.66-.44,1.31-.94,1.96-1.5Z"/><path class="cls-1" d="M268.81,210.05c.01,.2,0,.41,0,.62-.73,.52-1.46,.98-2.2,1.37,.02-.2,.04-.4,.05-.6,.73-.39,1.45-.85,2.16-1.39Z"/><path class="cls-1" d="M268.8,210.67c0,.2-.02,.4-.03,.61-.74,.52-1.49,.96-2.25,1.34,.04-.2,.06-.39,.08-.58,.74-.39,1.47-.85,2.2-1.37Z"/><path class="cls-1" d="M268.6,206.92c.03,.18,.05,.36,.08,.55-.65,.56-1.3,1.06-1.96,1.5l-.03-.54c.64-.45,1.28-.95,1.91-1.51Z"/><path class="cls-1" d="M268.5,206.36c.04,.18,.07,.37,.1,.56-.63,.56-1.27,1.06-1.91,1.51-.02-.19-.04-.37-.06-.55,.63-.45,1.25-.95,1.87-1.52Z"/><path class="cls-1" d="M266.63,90.12c.63,.45,1.25,.95,1.87,1.52-.58,2.93-1.94,5.33-4.12,6.91-3.21,2.33-7.56,2.43-12.19,.68,.08-.73,.18-1.44,.31-2.13,4.17,1.69,8.03,1.77,10.7-.17,1.98-1.44,3.11-3.84,3.43-6.81Z"/><path class="cls-1" d="M268.5,206.36c-.62,.57-1.24,1.07-1.87,1.52-.32-2.97-1.45-5.37-3.43-6.81-2.67-1.94-6.53-1.86-10.7-.17-.13-.69-.23-1.4-.31-2.13,4.63-1.75,8.98-1.65,12.19,.68,2.18,1.58,3.54,3.98,4.12,6.91Z"/><path class="cls-1" d="M266.65,86.56c.07,.85,.09,1.67,.07,2.47-.16-.11-.32-.21-.48-.31,.03-.78,0-1.59-.09-2.43,.17,.08,.33,.17,.5,.27Z"/><path class="cls-1" d="M268.77,86.72c-.74-.52-1.49-.96-2.25-1.34-.67-5.14-3.1-11.12-7.09-16.61-3.99-5.5-8.93-9.65-13.61-11.88-.12-.84-.32-1.7-.57-2.56,5.38,2.16,11.09,6.78,15.8,13.26,4.72,6.49,7.34,13.35,7.72,19.13Z"/><path class="cls-1" d="M266.52,212.62c.76-.38,1.51-.82,2.25-1.34-.38,5.78-3,12.64-7.72,19.13-4.71,6.48-10.42,11.1-15.8,13.26,.25-.86,.45-1.72,.57-2.56,4.68-2.23,9.62-6.38,13.61-11.88,3.99-5.49,6.42-11.47,7.09-16.61Z"/><path class="cls-1" d="M266.15,86.29c.09,.84,.12,1.65,.09,2.43-.15-.1-.31-.19-.46-.28,.01-.77-.03-1.57-.13-2.4,.17,.08,.33,.16,.5,.25Z"/><path class="cls-1" d="M265.65,86.04c.1,.83,.14,1.63,.13,2.4-2.59-1.48-5.2-1.99-7.53-1.23-3.14,1.02-5.34,4.2-6.42,8.56-.63-.3-1.27-.63-1.91-1,1.3-4.77,3.94-8.23,7.72-9.46,2.56-.83,5.3-.52,8,.73h.01Z"/><path class="cls-1" d="M265.78,209.56c.01,.77-.03,1.57-.13,2.4h-.01c-2.7,1.25-5.44,1.56-8,.73-3.78-1.23-6.42-4.69-7.72-9.46,.64-.37,1.28-.7,1.91-1,1.08,4.36,3.28,7.54,6.42,8.56,2.33,.76,4.94,.25,7.53-1.23Z"/><path class="cls-1" d="M262.53,164.44c.29,.68,.61,1.33,.95,1.94-.12,.1-.25,.2-.37,.31-.34-.61-.67-1.25-.97-1.93,.13-.12,.26-.22,.39-.32Z"/><path class="cls-1" d="M263.24,130.15c-.09,.13-.17,.27-.25,.41-.52-.47-1.02-.98-1.52-1.53,.08-.14,.17-.28,.27-.41,.49,.55,.99,1.06,1.5,1.53Z"/><path class="cls-1" d="M262.14,164.76c.3,.68,.63,1.32,.97,1.93l-.36,.33c-.35-.61-.68-1.25-.99-1.93,.13-.12,.25-.23,.38-.33Z"/><path class="cls-1" d="M262.99,130.56c-.09,.14-.17,.28-.24,.42-.52-.47-1.03-.98-1.54-1.53,.08-.15,.17-.28,.26-.42,.5,.55,1,1.06,1.52,1.53Z"/><path class="cls-1" d="M261.76,165.09c.31,.68,.64,1.32,.99,1.93-.52,.47-1.03,.98-1.54,1.53-.37-.62-.72-1.27-1.05-1.95,.53-.54,1.06-1.05,1.6-1.51Z"/><path class="cls-1" d="M262.75,130.98c-.35,.61-.68,1.25-.99,1.93-.54-.46-1.07-.97-1.6-1.51,.33-.68,.68-1.33,1.05-1.95,.51,.55,1.02,1.06,1.54,1.53Z"/><path class="cls-1" d="M261.55,133.38c-.07,.15-.14,.31-.2,.47-.55-.47-1.09-.97-1.62-1.51,.06-.16,.13-.32,.21-.48,.53,.55,1.06,1.05,1.61,1.52Z"/><path class="cls-1" d="M260.16,166.6c.33,.68,.68,1.33,1.05,1.95-.11,.12-.22,.24-.33,.37-.38-.61-.74-1.26-1.07-1.94,.11-.13,.23-.26,.35-.38Z"/><path class="cls-1" d="M259.81,166.98c.33,.68,.69,1.33,1.07,1.94-.12,.13-.23,.26-.34,.39-.39-.62-.75-1.27-1.09-1.95,.12-.13,.24-.26,.36-.38Z"/><path class="cls-1" d="M259.45,167.36c.34,.68,.7,1.33,1.09,1.95-3.01,3.48-5.66,8.17-7.4,13.53s-2.35,10.71-1.97,15.29c-.67,.28-1.35,.59-2.02,.94-.52-4.96,.13-10.82,2.09-16.85,1.96-6.03,4.88-11.15,8.21-14.86Z"/><path class="cls-1" d="M260.54,128.69c-.39,.62-.75,1.27-1.09,1.95-3.33-3.71-6.25-8.83-8.21-14.86-1.96-6.03-2.61-11.89-2.09-16.85,.67,.35,1.35,.66,2.02,.94-.38,4.58,.23,9.93,1.97,15.29s4.39,10.05,7.4,13.53Z"/><path class="cls-1" d="M261.35,164.15c-.55,.47-1.09,.97-1.62,1.51-2.04-4.56-3.23-10.32-3.23-16.66s1.19-12.1,3.23-16.66c.53,.54,1.07,1.04,1.62,1.51-1.78,4.24-2.85,9.51-2.85,15.15s1.07,10.91,2.85,15.15Z"/><path class="cls-1" d="M251.83,95.77c-.04,.15-.08,.31-.11,.47-.64-.29-1.28-.62-1.93-.99,.04-.16,.08-.32,.13-.48,.64,.37,1.28,.7,1.91,1Z"/><path class="cls-1" d="M251.72,96.24c-.04,.15-.07,.32-.1,.48-.64-.29-1.29-.62-1.94-.99,.03-.16,.07-.32,.11-.48,.65,.37,1.29,.7,1.93,.99Z"/><path class="cls-1" d="M251.62,96.72c-.15,.69-.26,1.4-.35,2.14-.66-.29-1.33-.61-1.99-.97,.1-.74,.24-1.46,.4-2.16,.65,.37,1.3,.7,1.94,.99Z"/><path class="cls-1" d="M251.27,199.14c.09,.74,.2,1.45,.35,2.14-.64,.29-1.29,.62-1.94,.99-.16-.7-.3-1.42-.4-2.16,.66-.36,1.33-.68,1.99-.97Z"/><path class="cls-1" d="M251.27,98.86c-.02,.17-.04,.33-.05,.5-.67-.27-1.34-.59-2.01-.94,.02-.18,.04-.35,.07-.53,.66,.36,1.33,.68,1.99,.97Z"/><path class="cls-1" d="M251.22,99.36c-.02,.17-.04,.34-.05,.51-.67-.28-1.35-.59-2.02-.94l.06-.51c.67,.35,1.34,.67,2.01,.94Z"/><path class="cls-1" d="M249.28,200.11c.1,.74,.24,1.46,.4,2.16-.15,.07-.3,.16-.44,.25-.17-.7-.3-1.42-.41-2.17,.15-.09,.3-.17,.45-.24Z"/><path class="cls-1" d="M249.24,202.52c-.15,.08-.29,.16-.44,.25-.17-.7-.31-1.43-.43-2.17,.16-.08,.31-.17,.46-.25,.11,.75,.24,1.47,.41,2.17Z"/><path class="cls-1" d="M248.8,95.23c-.17,.7-.31,1.43-.43,2.17-4.32-2.5-8.67-6.46-12.4-11.59s-6.15-10.49-7.18-15.37c.74,.12,1.47,.21,2.19,.25,1.05,4.48,3.29,9.38,6.61,13.95,3.31,4.56,7.28,8.2,11.21,10.59Z"/><path class="cls-1" d="M248.37,200.6c.12,.74,.26,1.47,.43,2.17-3.93,2.39-7.9,6.03-11.21,10.59-3.32,4.57-5.56,9.47-6.61,13.95-.72,.04-1.45,.13-2.19,.25,1.03-4.88,3.45-10.24,7.18-15.37s8.08-9.09,12.4-11.59Z"/><path class="cls-1" d="M245.82,56.89c-.18-.09-.35-.17-.53-.25-.14-.83-.35-1.67-.62-2.53,.2,.07,.39,.15,.58,.22,.25,.86,.45,1.72,.57,2.56Z"/><path class="cls-1" d="M245.29,56.64c-.18-.08-.35-.16-.53-.23-.16-.82-.38-1.66-.67-2.5,.2,.06,.39,.13,.58,.2,.27,.86,.48,1.7,.62,2.53Z"/><path class="cls-1" d="M244.93,57.52c.35,2.96-.21,5.66-1.79,7.84-2.33,3.21-6.44,4.65-11.37,4.41-.16-.72-.28-1.43-.36-2.12,4.48,.33,8.17-.79,10.11-3.46,1.44-1.98,1.77-4.62,1.15-7.54,.74,.23,1.5,.52,2.26,.87Z"/><path class="cls-1" d="M243.14,232.64c1.58,2.18,2.14,4.88,1.79,7.84-.76,.35-1.52,.64-2.26,.87,.62-2.92,.29-5.56-1.15-7.54-1.94-2.67-5.63-3.79-10.11-3.46,.08-.69,.2-1.4,.36-2.12,4.93-.24,9.04,1.2,11.37,4.41Z"/><path class="cls-1" d="M244.93,240.48c-.02,.19-.05,.38-.08,.57-.78,.33-1.55,.61-2.3,.83,.05-.18,.09-.35,.12-.53,.74-.23,1.5-.52,2.26-.87Z"/><path class="cls-1" d="M244.85,241.05l-.09,.54c-.79,.33-1.57,.61-2.34,.83,.04-.18,.09-.36,.13-.54,.75-.22,1.52-.5,2.3-.83Z"/><path class="cls-1" d="M244.09,53.91c.29,.84,.51,1.68,.67,2.5-.79-.33-1.57-.61-2.34-.83-.22-.77-.5-1.55-.83-2.34,.82,.16,1.66,.38,2.5,.67Z"/><path class="cls-1" d="M244.76,241.59c-.16,.82-.38,1.66-.67,2.5-.84,.29-1.68,.51-2.5,.67,.33-.79,.61-1.57,.83-2.34,.77-.22,1.55-.5,2.34-.83Z"/><path class="cls-1" d="M244.09,244.09c-.06,.2-.13,.39-.2,.58-.86,.27-1.7,.48-2.53,.62,.08-.18,.16-.35,.23-.53,.82-.16,1.66-.38,2.5-.67Z"/><path class="cls-1" d="M243.89,244.67c-.07,.2-.15,.39-.22,.58-.86,.25-1.72,.45-2.56,.57,.09-.18,.17-.35,.25-.53,.83-.14,1.67-.35,2.53-.62Z"/><path class="cls-1" d="M242.42,55.58c-.18-.04-.36-.09-.54-.13-.22-.75-.5-1.52-.83-2.3l.54,.09c.33,.79,.61,1.57,.83,2.34Z"/><path class="cls-1" d="M241.88,55.45c-.18-.05-.35-.09-.53-.12-.23-.74-.52-1.5-.87-2.26,.19,.02,.38,.05,.57,.08,.33,.78,.61,1.55,.83,2.3Z"/><path class="cls-1" d="M243.67,52.75c-.86-.25-1.72-.45-2.56-.57-2.23-4.68-6.38-9.62-11.88-13.61-5.49-3.99-11.47-6.42-16.61-7.09-.38-.76-.82-1.51-1.34-2.25,5.78,.38,12.64,3,19.13,7.72,6.48,4.71,11.1,10.42,13.26,15.8Z"/><path class="cls-1" d="M241.11,245.82c.84-.12,1.7-.32,2.56-.57-2.16,5.38-6.78,11.09-13.26,15.8-6.49,4.72-13.35,7.34-19.13,7.72,.52-.74,.96-1.49,1.34-2.25,5.14-.67,11.12-3.1,16.61-7.09,5.5-3.99,9.65-8.93,11.88-13.61Z"/><path class="cls-1" d="M240.48,53.07c.35,.76,.64,1.52,.87,2.26-2.92-.62-5.56-.29-7.54,1.15-2.67,1.94-3.79,5.63-3.46,10.11-.69-.08-1.4-.2-2.12-.36-.24-4.93,1.2-9.04,4.41-11.37,2.18-1.58,4.88-2.14,7.84-1.79Z"/><path class="cls-1" d="M241.35,242.67c-.23,.74-.52,1.5-.87,2.26-2.96,.35-5.66-.21-7.84-1.79-3.21-2.33-4.65-6.44-4.41-11.37,.72-.16,1.43-.28,2.12-.36-.33,4.48,.79,8.17,3.46,10.11,1.98,1.44,4.62,1.77,7.54,1.15Z"/><path class="cls-1" d="M231.28,228.26c.17-.02,.33-.03,.49-.03-.16,.72-.28,1.43-.36,2.12-.16,0-.32,.02-.48,.04,.07-.69,.19-1.41,.35-2.13Z"/><path class="cls-1" d="M230.77,228.3c.17-.02,.34-.04,.51-.04-.16,.72-.28,1.44-.35,2.13-.16,.01-.33,.02-.49,.05,.07-.7,.18-1.42,.33-2.14Z"/><path class="cls-1" d="M230.88,70.2c.03,.16,.06,.33,.1,.49-.72-.04-1.45-.13-2.19-.25-.04-.17-.08-.35-.11-.52,.75,.14,1.48,.23,2.2,.28Z"/><path class="cls-1" d="M230.77,69.7c.03,.17,.06,.33,.11,.5-.72-.05-1.45-.14-2.2-.28-.04-.17-.07-.34-.09-.51,.74,.14,1.47,.23,2.18,.29Z"/><path class="cls-1" d="M230.44,67.56c.07,.7,.18,1.42,.33,2.14-.71-.06-1.44-.15-2.18-.29-.14-.74-.23-1.47-.29-2.18,.72,.15,1.44,.26,2.14,.33Z"/><path class="cls-1" d="M230.77,228.3c-.15,.72-.26,1.44-.33,2.14-.7,.07-1.42,.18-2.14,.33,.06-.71,.15-1.44,.29-2.18,.74-.14,1.47-.23,2.18-.29Z"/><path class="cls-1" d="M230.39,67.07c.01,.16,.02,.33,.05,.49-.7-.07-1.42-.18-2.14-.33-.02-.17-.04-.34-.04-.51,.72,.16,1.44,.28,2.13,.35Z"/><path class="cls-1" d="M230.35,66.59c0,.16,.02,.32,.04,.48-.69-.07-1.41-.19-2.13-.35-.02-.17-.03-.33-.03-.49,.72,.16,1.43,.28,2.12,.36Z"/><path class="cls-1" d="M228.08,228.68c.17-.04,.34-.07,.51-.09-.14,.74-.23,1.47-.29,2.18-.17,.03-.33,.06-.5,.11,.05-.72,.14-1.45,.28-2.2Z"/><path class="cls-1" d="M227.56,228.79c.17-.04,.35-.08,.52-.11-.14,.75-.23,1.48-.28,2.2-.16,.03-.33,.06-.49,.1,.04-.72,.13-1.45,.25-2.19Z"/><path class="cls-1" d="M227.31,67.02c.04,.72,.13,1.45,.25,2.19-4.88-1.03-10.24-3.45-15.37-7.18s-9.09-8.08-11.59-12.4c.74-.12,1.47-.26,2.17-.43,2.39,3.93,6.03,7.9,10.59,11.21,4.57,3.32,9.47,5.56,13.95,6.61Z"/><path class="cls-1" d="M227.56,228.79c-.12,.74-.21,1.47-.25,2.19-4.48,1.05-9.38,3.29-13.95,6.61-4.56,3.31-8.2,7.28-10.59,11.21-.7-.17-1.43-.31-2.17-.43,2.5-4.32,6.46-8.67,11.59-12.4s10.49-6.15,15.37-7.18Z"/><path class="cls-1" d="M211.96,32.36c1.25,2.7,1.56,5.44,.73,8-1.23,3.78-4.69,6.42-9.46,7.72-.37-.64-.7-1.28-1-1.91,4.36-1.08,7.54-3.28,8.56-6.42,.76-2.33,.25-4.94-1.23-7.53,.77,0,1.57,.03,2.4,.13h0Z"/><path class="cls-1" d="M212.69,257.64c.83,2.56,.52,5.3-.73,8h0c-.83,.11-1.63,.15-2.4,.14,1.48-2.59,1.99-5.2,1.23-7.53-1.02-3.14-4.2-5.34-8.56-6.42,.3-.63,.63-1.27,1-1.91,4.77,1.3,8.23,3.94,9.46,7.72Z"/><path class="cls-1" d="M212.62,31.48c-.2-.04-.39-.06-.58-.08-.39-.74-.85-1.47-1.37-2.2,.2,0,.4,.02,.61,.03,.52,.74,.96,1.49,1.34,2.25Z"/><path class="cls-1" d="M211.96,265.65c-.08,.17-.16,.33-.25,.5-.84,.09-1.65,.12-2.43,.09,.1-.15,.19-.31,.28-.46,.77,.01,1.57-.03,2.4-.13Z"/><path class="cls-1" d="M212.04,31.4c-.2-.02-.4-.04-.6-.05-.39-.73-.85-1.45-1.39-2.16,.2-.01,.41,0,.62,.01,.52,.73,.98,1.46,1.37,2.2Z"/><path class="cls-1" d="M211.71,266.15c-.08,.17-.17,.33-.27,.5-.85,.07-1.67,.09-2.47,.07,.11-.16,.21-.32,.31-.48,.78,.03,1.59,0,2.43-.09Z"/><path class="cls-1" d="M211.44,31.35c-.85-.07-1.67-.09-2.47-.07-.44-.66-.94-1.31-1.5-1.96,.82-.1,1.68-.15,2.58-.13,.54,.71,1,1.43,1.39,2.16Z"/><path class="cls-1" d="M208.97,266.72c.8,.02,1.62,0,2.47-.07-.39,.73-.85,1.45-1.39,2.16-.9,.02-1.76-.03-2.58-.13,.56-.65,1.06-1.3,1.5-1.96Z"/><path class="cls-1" d="M207.47,268.68c.82,.1,1.68,.15,2.58,.13-.12,.17-.24,.33-.37,.5-.9,0-1.77-.07-2.6-.19,.14-.14,.27-.29,.39-.44Z"/><path class="cls-1" d="M209.68,269.31c-.13,.15-.25,.31-.38,.47-.91-.02-1.78-.1-2.61-.24,.14-.14,.27-.28,.39-.42,.83,.12,1.7,.18,2.6,.19Z"/><path class="cls-1" d="M208.97,31.28l-.54,.03c-.45-.64-.95-1.28-1.51-1.91,.18-.03,.36-.05,.55-.08,.56,.65,1.06,1.3,1.5,1.96Z"/><path class="cls-1" d="M208.43,31.31c-.19,.02-.37,.04-.55,.06-.45-.63-.95-1.25-1.52-1.87,.18-.04,.37-.07,.56-.1,.56,.63,1.06,1.27,1.51,1.91Z"/><path class="cls-1" d="M209.3,28.22c-.91,.02-1.78,.1-2.61,.24-3.57-3.77-9.05-7.18-15.51-9.28s-12.9-2.56-18-1.61c-.59-.6-1.25-1.18-1.97-1.72,5.62-1.43,12.96-1.05,20.59,1.43s13.79,6.49,17.5,10.94Z"/><path class="cls-1" d="M206.69,269.54c.83,.14,1.7,.22,2.61,.24-3.71,4.45-9.87,8.46-17.5,10.94s-14.97,2.86-20.59,1.43c.72-.54,1.38-1.12,1.97-1.72,5.1,.95,11.54,.49,18-1.61s11.94-5.51,15.51-9.28Z"/><path class="cls-1" d="M206.36,29.5c.57,.62,1.07,1.24,1.52,1.87-2.97,.32-5.37,1.45-6.81,3.43-1.94,2.67-1.86,6.53-.17,10.7-.69,.13-1.4,.23-2.13,.31-1.75-4.63-1.65-8.98,.68-12.19,1.58-2.18,3.98-3.54,6.91-4.12Z"/><path class="cls-1" d="M207.88,266.63c-.45,.63-.95,1.25-1.52,1.87-2.93-.58-5.33-1.94-6.91-4.12-2.33-3.21-2.43-7.56-.68-12.19,.73,.08,1.44,.18,2.13,.31-1.69,4.17-1.77,8.03,.17,10.7,1.44,1.98,3.84,3.11,6.81,3.43Z"/><path class="cls-1" d="M202.75,249.79c.16,.04,.32,.08,.48,.13-.37,.64-.7,1.28-1,1.91-.15-.04-.31-.08-.47-.11,.29-.64,.62-1.28,.99-1.93Z"/><path class="cls-1" d="M202.52,48.76c.08,.15,.16,.29,.25,.44-.7,.17-1.43,.31-2.17,.43-.08-.16-.17-.31-.25-.46,.75-.11,1.47-.24,2.17-.41Z"/><path class="cls-1" d="M202.27,48.32c.07,.15,.16,.3,.25,.44-.7,.17-1.42,.3-2.17,.41-.09-.15-.17-.3-.24-.45,.74-.1,1.46-.24,2.16-.4Z"/><path class="cls-1" d="M202.27,249.68c.16,.03,.32,.07,.48,.11-.37,.65-.7,1.29-.99,1.93-.15-.04-.32-.07-.48-.1,.29-.64,.62-1.29,.99-1.94Z"/><path class="cls-1" d="M201.28,46.38c.29,.64,.62,1.29,.99,1.94-.7,.16-1.42,.3-2.16,.4-.36-.66-.68-1.33-.97-1.99,.74-.09,1.45-.2,2.14-.35Z"/><path class="cls-1" d="M202.27,249.68c-.37,.65-.7,1.3-.99,1.94-.69-.15-1.4-.26-2.14-.35,.29-.66,.61-1.33,.97-1.99,.74,.1,1.46,.24,2.16,.4Z"/><path class="cls-1" d="M201.08,45.95c.06,.14,.13,.28,.2,.43-.69,.15-1.4,.26-2.14,.35-.06-.15-.12-.31-.18-.46,.73-.08,1.44-.19,2.12-.32Z"/><path class="cls-1" d="M200.9,45.5l.18,.45c-.68,.13-1.39,.24-2.12,.32-.07-.16-.13-.31-.19-.46,.73-.08,1.44-.18,2.13-.31Z"/><path class="cls-1" d="M199.58,249.21c.18,.02,.35,.04,.53,.07-.36,.66-.68,1.33-.97,1.99-.17-.02-.33-.04-.5-.05,.27-.67,.59-1.34,.94-2.01Z"/><path class="cls-1" d="M199.07,249.15l.51,.06c-.35,.67-.67,1.34-.94,2.01-.17-.02-.34-.04-.51-.05,.28-.67,.59-1.35,.94-2.02Z"/><path class="cls-1" d="M198.13,46.83c.28,.67,.59,1.35,.94,2.02-4.96,.52-10.82-.13-16.85-2.09s-11.15-4.88-14.86-8.21c.68-.34,1.33-.7,1.95-1.09,3.48,3.01,8.17,5.66,13.53,7.4s10.71,2.35,15.29,1.97Z"/><path class="cls-1" d="M199.07,249.15c-.35,.67-.66,1.35-.94,2.02-4.58-.38-9.93,.23-15.29,1.97s-10.05,4.39-13.53,7.4c-.62-.39-1.27-.75-1.95-1.09,3.71-3.33,8.83-6.25,14.86-8.21,6.03-1.96,11.89-2.61,16.85-2.09Z"/><path class="cls-1" d="M172.82,18.6c2.04,2.19,3.18,4.71,3.18,7.4,0,3.97-2.48,7.56-6.62,10.26-.55-.49-1.06-.99-1.53-1.5,3.81-2.37,6.15-5.45,6.15-8.76,0-2.45-1.28-4.78-3.5-6.78,.73-.24,1.51-.45,2.32-.62Z"/><path class="cls-1" d="M176,272c0,2.69-1.14,5.21-3.18,7.4-.81-.17-1.59-.38-2.32-.62,2.22-2,3.5-4.33,3.5-6.78,0-3.31-2.34-6.39-6.15-8.76,.47-.51,.98-1.01,1.53-1.5,4.14,2.7,6.62,6.29,6.62,10.26Z"/><path class="cls-1" d="M173.18,17.57c-.2,.03-.39,.07-.58,.11-.6-.59-1.27-1.15-1.99-1.67,.19-.06,.4-.11,.6-.16,.72,.54,1.38,1.12,1.97,1.72Z"/><path class="cls-1" d="M172.82,279.4c-.11,.13-.24,.27-.38,.4-.83-.18-1.61-.4-2.35-.67,.14-.11,.28-.22,.41-.35,.73,.24,1.51,.45,2.32,.62Z"/><path class="cls-1" d="M172.6,17.68c-.19,.04-.38,.08-.56,.13-.61-.58-1.28-1.12-2.01-1.63,.19-.06,.38-.12,.58-.17,.72,.52,1.39,1.08,1.99,1.67Z"/><path class="cls-1" d="M172.44,279.8c-.12,.13-.26,.26-.4,.39-.84-.19-1.63-.43-2.37-.71,.15-.11,.28-.22,.42-.35,.74,.27,1.52,.49,2.35,.67Z"/><path class="cls-1" d="M170.03,16.18c.73,.51,1.4,1.05,2.01,1.63-.84,.19-1.63,.43-2.37,.71-.62-.5-1.3-.97-2.04-1.41,.75-.36,1.55-.67,2.4-.93Z"/><path class="cls-1" d="M172.04,280.19c-.61,.58-1.28,1.12-2.01,1.63-.85-.26-1.65-.57-2.4-.93,.74-.44,1.42-.91,2.04-1.41,.74,.28,1.53,.52,2.37,.71Z"/><path class="cls-1" d="M170.03,281.82c-.16,.13-.34,.24-.51,.35-.84-.29-1.64-.61-2.39-.98,.17-.09,.34-.19,.5-.3,.75,.36,1.55,.67,2.4,.93Z"/><path class="cls-1" d="M169.67,18.52c-.17,.06-.35,.13-.52,.19-.62-.47-1.3-.93-2.03-1.35,.16-.09,.33-.17,.51-.25,.74,.44,1.42,.91,2.04,1.41Z"/><path class="cls-1" d="M169.31,37.46c-.62,.39-1.27,.75-1.95,1.09-.13-.12-.26-.24-.38-.36,.68-.33,1.33-.69,1.94-1.07,.13,.12,.26,.23,.39,.34Z"/><path class="cls-1" d="M169.15,18.71c-.16,.07-.33,.14-.49,.22-.62-.46-1.3-.9-2.04-1.31,.16-.09,.33-.18,.5-.26,.73,.42,1.41,.88,2.03,1.35Z"/><path class="cls-1" d="M168.97,261.47c.14,.08,.28,.17,.41,.27-.55,.49-1.06,.99-1.53,1.5-.13-.09-.27-.17-.41-.25,.47-.52,.98-1.02,1.53-1.52Z"/><path class="cls-1" d="M169.52,282.17c-.16,.12-.33,.23-.5,.33-.85-.29-1.65-.64-2.4-1.03,.17-.09,.34-.18,.51-.28,.75,.37,1.55,.69,2.39,.98Z"/><path class="cls-1" d="M149,10.5c8.02,0,15.11,1.91,20.02,5-.85,.29-1.65,.64-2.4,1.03-4.56-2.48-10.82-4.03-17.62-4.03s-13.06,1.55-17.62,4.03c-.75-.39-1.55-.74-2.4-1.03,4.91-3.09,12-5,20.02-5Z"/><path class="cls-1" d="M169.02,282.5c-4.91,3.09-12,5-20.02,5s-15.11-1.91-20.02-5c.85-.29,1.65-.64,2.4-1.03,4.56,2.48,10.82,4.03,17.62,4.03s13.06-1.55,17.62-4.03c.75,.39,1.55,.74,2.4,1.03Z"/><path class="cls-1" d="M168.55,261.21c.15,.08,.28,.17,.42,.26-.55,.5-1.06,1-1.53,1.52-.14-.09-.28-.17-.42-.24,.47-.52,.98-1.03,1.53-1.54Z"/><path class="cls-1" d="M168.92,37.12c-.61,.38-1.26,.74-1.94,1.07-.13-.11-.26-.23-.38-.35,.68-.33,1.33-.68,1.95-1.05,.12,.11,.24,.22,.37,.33Z"/><path class="cls-1" d="M168.55,36.79c-.62,.37-1.27,.72-1.95,1.05-.54-.53-1.05-1.06-1.51-1.6,.68-.31,1.32-.64,1.93-.99,.47,.52,.98,1.03,1.53,1.54Z"/><path class="cls-1" d="M166.6,260.16c.68,.33,1.33,.68,1.95,1.05-.55,.51-1.06,1.02-1.53,1.54-.61-.35-1.25-.68-1.93-.99,.46-.54,.97-1.07,1.51-1.6Z"/><path class="cls-1" d="M166.69,34.89l.33,.36c-.61,.35-1.25,.68-1.93,.99-.12-.13-.23-.25-.33-.38,.68-.3,1.32-.63,1.93-.97Z"/><path class="cls-1" d="M166.38,34.52c.1,.12,.2,.25,.31,.37-.61,.34-1.25,.67-1.93,.97-.12-.13-.22-.26-.32-.39,.68-.29,1.33-.61,1.94-.95Z"/><path class="cls-1" d="M166.62,17.62c.74,.41,1.42,.85,2.04,1.31-2.73,1.22-4.67,3.03-5.43,5.36-1.02,3.14,.25,6.79,3.15,10.23-.61,.34-1.26,.66-1.94,.95-3.09-3.86-4.34-8.02-3.11-11.79,.83-2.56,2.69-4.6,5.29-6.06Z"/><path class="cls-1" d="M168.66,279.07c-.62,.46-1.3,.9-2.04,1.31-2.6-1.46-4.46-3.5-5.29-6.06-1.23-3.77,.02-7.93,3.11-11.79,.68,.29,1.33,.61,1.94,.95-2.9,3.44-4.17,7.09-3.15,10.23,.76,2.33,2.7,4.14,5.43,5.36Z"/><path class="cls-1" d="M166.14,259.94c.16,.07,.31,.14,.46,.22-.54,.53-1.05,1.06-1.51,1.6-.15-.07-.31-.14-.47-.21,.47-.55,.98-1.09,1.52-1.61Z"/><path class="cls-1" d="M165.66,259.73c.16,.06,.32,.13,.48,.21-.54,.52-1.05,1.06-1.52,1.61-.15-.07-.31-.14-.47-.2,.47-.55,.97-1.09,1.51-1.62Z"/><path class="cls-1" d="M164.15,36.65c.47,.55,.97,1.09,1.51,1.62-4.56,2.04-10.32,3.23-16.66,3.23s-12.1-1.19-16.66-3.23c.54-.53,1.04-1.07,1.51-1.62,4.24,1.78,9.51,2.85,15.15,2.85s10.91-1.07,15.15-2.85Z"/><path class="cls-1" d="M165.66,259.73c-.54,.53-1.04,1.07-1.51,1.62-4.24-1.78-9.51-2.85-15.15-2.85s-10.91,1.07-15.15,2.85c-.47-.55-.97-1.09-1.51-1.62,4.56-2.04,10.32-3.23,16.66-3.23s12.1,1.19,16.66,3.23Z"/><path class="cls-1" d="M136.67,23.68c1.23,3.77-.02,7.93-3.11,11.79-.68-.29-1.33-.61-1.94-.95,2.9-3.44,4.17-7.09,3.15-10.23-.76-2.33-2.7-4.14-5.43-5.36,.62-.46,1.3-.9,2.04-1.31,2.6,1.46,4.46,3.5,5.29,6.06Z"/><path class="cls-1" d="M133.56,262.53c3.09,3.86,4.34,8.02,3.11,11.79-.83,2.56-2.69,4.6-5.29,6.06-.74-.41-1.42-.85-2.04-1.31,2.73-1.22,4.67-3.03,5.43-5.36,1.02-3.14-.25-6.79-3.15-10.23,.61-.34,1.26-.66,1.94-.95Z"/><path class="cls-1" d="M133.38,36.45c.15,.07,.31,.14,.47,.2-.47,.55-.97,1.09-1.51,1.62-.16-.06-.32-.13-.48-.21,.54-.52,1.05-1.06,1.52-1.61Z"/><path class="cls-1" d="M133.24,262.14c.12,.13,.22,.26,.32,.39-.68,.29-1.33,.61-1.94,.95-.1-.12-.2-.25-.31-.37,.61-.34,1.25-.67,1.93-.97Z"/><path class="cls-1" d="M132.91,36.24c.15,.07,.31,.14,.47,.21-.47,.55-.98,1.09-1.52,1.61-.16-.07-.31-.14-.46-.22,.54-.53,1.05-1.06,1.51-1.6Z"/><path class="cls-1" d="M132.91,261.76c.12,.13,.23,.25,.33,.38-.68,.3-1.32,.63-1.93,.97l-.33-.36c.61-.35,1.25-.68,1.93-.99Z"/><path class="cls-1" d="M130.98,35.25c.61,.35,1.25,.68,1.93,.99-.46,.54-.97,1.07-1.51,1.6-.68-.33-1.33-.68-1.95-1.05,.55-.51,1.06-1.02,1.53-1.54Z"/><path class="cls-1" d="M132.91,261.76c-.68,.31-1.32,.64-1.93,.99-.47-.52-.98-1.03-1.53-1.54,.62-.37,1.27-.72,1.95-1.05,.54,.53,1.05,1.06,1.51,1.6Z"/><path class="cls-1" d="M131.38,16.53c-.17,.09-.34,.18-.51,.28-.75-.37-1.55-.69-2.39-.98,.16-.12,.33-.23,.5-.33,.85,.29,1.65,.64,2.4,1.03Z"/><path class="cls-1" d="M131.38,280.38c-.16,.09-.33,.18-.5,.26-.73-.42-1.41-.88-2.03-1.35,.16-.07,.33-.14,.49-.22,.62,.46,1.3,.9,2.04,1.31Z"/><path class="cls-1" d="M131.02,259.81c.13,.11,.26,.23,.38,.35-.68,.33-1.33,.68-1.95,1.05-.12-.11-.24-.22-.37-.33,.61-.38,1.26-.74,1.94-1.07Z"/><path class="cls-1" d="M130.64,259.45c.13,.12,.26,.24,.38,.36-.68,.33-1.33,.69-1.94,1.07-.13-.12-.26-.23-.39-.34,.62-.39,1.27-.75,1.95-1.09Z"/><path class="cls-1" d="M130.88,280.64c-.16,.09-.33,.17-.51,.25-.74-.44-1.42-.91-2.04-1.41,.17-.06,.35-.13,.52-.19,.62,.47,1.3,.93,2.03,1.35Z"/><path class="cls-1" d="M130.87,16.81c-.17,.09-.34,.19-.5,.3-.75-.36-1.55-.67-2.4-.93,.16-.13,.34-.24,.51-.35,.84,.29,1.64,.61,2.39,.98Z"/><path class="cls-1" d="M130.56,35.01c.14,.09,.28,.17,.42,.24-.47,.52-.98,1.03-1.53,1.54-.15-.08-.28-.17-.42-.26,.55-.5,1.06-1,1.53-1.52Z"/><path class="cls-1" d="M130.15,34.76c.13,.09,.27,.17,.41,.25-.47,.52-.98,1.02-1.53,1.52-.14-.08-.28-.17-.41-.27,.55-.49,1.06-.99,1.53-1.5Z"/><path class="cls-1" d="M128.69,37.46c.62,.39,1.27,.75,1.95,1.09-3.71,3.33-8.83,6.25-14.86,8.21s-11.89,2.61-16.85,2.09c.35-.67,.66-1.35,.94-2.02,4.58,.38,9.93-.23,15.29-1.97s10.05-4.39,13.53-7.4Z"/><path class="cls-1" d="M130.64,259.45c-.68,.34-1.33,.7-1.95,1.09-3.48-3.01-8.17-5.66-13.53-7.4s-10.71-2.35-15.29-1.97c-.28-.67-.59-1.35-.94-2.02,4.96-.52,10.82,.13,16.85,2.09,6.03,1.96,11.15,4.88,14.86,8.21Z"/><path class="cls-1" d="M130.15,34.76c-.47,.51-.98,1.01-1.53,1.5-4.14-2.7-6.62-6.29-6.62-10.26,0-2.69,1.14-5.21,3.18-7.4,.81,.17,1.59,.38,2.32,.62-2.22,2-3.5,4.33-3.5,6.78,0,3.31,2.34,6.39,6.15,8.76Z"/><path class="cls-1" d="M130.37,17.11c-.74,.44-1.42,.91-2.04,1.41-.74-.28-1.53-.52-2.37-.71,.61-.58,1.28-1.12,2.01-1.63,.85,.26,1.65,.57,2.4,.93Z"/><path class="cls-1" d="M128.33,279.48c.62,.5,1.3,.97,2.04,1.41-.75,.36-1.55,.67-2.4,.93-.73-.51-1.4-1.05-2.01-1.63,.84-.19,1.63-.43,2.37-.71Z"/><path class="cls-1" d="M128.33,18.52c-.15,.11-.28,.22-.42,.35-.74-.27-1.52-.49-2.35-.67,.12-.13,.26-.26,.4-.39,.84,.19,1.63,.43,2.37,.71Z"/><path class="cls-1" d="M127.91,18.87c-.14,.11-.28,.22-.41,.35-.73-.24-1.51-.45-2.32-.62,.11-.13,.24-.27,.38-.4,.83,.18,1.61,.4,2.35,.67Z"/><path class="cls-1" d="M127.97,281.82c-.19,.06-.38,.12-.58,.17-.72-.52-1.39-1.08-1.99-1.67,.19-.04,.38-.08,.56-.13,.61,.58,1.28,1.12,2.01,1.63Z"/><path class="cls-1" d="M127.39,281.99c-.19,.06-.4,.11-.6,.16-.72-.54-1.38-1.12-1.97-1.72,.2-.03,.39-.07,.58-.11,.6,.59,1.27,1.15,1.99,1.67Z"/><path class="cls-1" d="M126.79,15.85c-.72,.54-1.38,1.12-1.97,1.72-5.1-.95-11.54-.49-18,1.61s-11.94,5.51-15.51,9.28c-.83-.14-1.7-.22-2.61-.24,3.71-4.45,9.87-8.46,17.5-10.94s14.97-2.86,20.59-1.43Z"/><path class="cls-1" d="M124.82,280.43c.59,.6,1.25,1.18,1.97,1.72-5.62,1.43-12.96,1.05-20.59-1.43-7.63-2.48-13.79-6.49-17.5-10.94,.91-.02,1.78-.1,2.61-.24,3.57,3.77,9.05,7.18,15.51,9.28s12.9,2.56,18,1.61Z"/><path class="cls-1" d="M99.36,46.78c.17,.02,.34,.04,.51,.05-.28,.67-.59,1.35-.94,2.02l-.51-.06c.35-.67,.67-1.34,.94-2.01Z"/><path class="cls-1" d="M98.55,33.62c2.33,3.21,2.43,7.56,.68,12.19-.73-.08-1.44-.18-2.13-.31,1.69-4.17,1.77-8.03-.17-10.7-1.44-1.98-3.84-3.11-6.81-3.43,.45-.63,.95-1.25,1.52-1.87,2.93,.58,5.33,1.94,6.91,4.12Z"/><path class="cls-1" d="M98.86,46.73c.17,.02,.33,.04,.5,.05-.27,.67-.59,1.34-.94,2.01-.18-.02-.35-.04-.53-.07,.36-.66,.68-1.33,.97-1.99Z"/><path class="cls-1" d="M98.86,46.73c-.29,.66-.61,1.33-.97,1.99-.74-.1-1.46-.24-2.16-.4,.37-.65,.7-1.3,.99-1.94,.69,.15,1.4,.26,2.14,.35Z"/><path class="cls-1" d="M96.24,46.28c.15,.04,.32,.07,.48,.1-.29,.64-.62,1.29-.99,1.94-.16-.03-.32-.07-.48-.11,.37-.65,.7-1.29,.99-1.93Z"/><path class="cls-1" d="M95.77,46.17c.15,.04,.31,.08,.47,.11-.29,.64-.62,1.28-.99,1.93-.16-.04-.32-.08-.48-.13,.37-.64,.7-1.28,1-1.91Z"/><path class="cls-1" d="M95.23,49.2c.7,.17,1.43,.31,2.17,.43-2.5,4.32-6.46,8.67-11.59,12.4s-10.49,6.15-15.37,7.18c.12-.74,.21-1.47,.25-2.19,4.48-1.05,9.38-3.29,13.95-6.61,4.56-3.31,8.2-7.28,10.59-11.21Z"/><path class="cls-1" d="M95.77,46.17c-.3,.63-.63,1.27-1,1.91-4.77-1.3-8.23-3.94-9.46-7.72-.83-2.56-.52-5.3,.73-8h0c.83-.11,1.63-.15,2.4-.14-1.48,2.59-1.99,5.2-1.23,7.53,1.02,3.14,4.2,5.34,8.56,6.42Z"/><path class="cls-1" d="M91.31,28.46c-.14,.14-.27,.28-.39,.42-.83-.12-1.7-.18-2.6-.19,.13-.15,.25-.31,.38-.47,.91,.02,1.78,.1,2.61,.24Z"/><path class="cls-1" d="M90.92,28.88c-.14,.14-.27,.29-.39,.44-.82-.1-1.68-.15-2.58-.13,.12-.17,.24-.33,.37-.5,.9,.01,1.77,.07,2.6,.19Z"/><path class="cls-1" d="M90.53,29.32c-.56,.65-1.06,1.3-1.5,1.96-.8-.02-1.62,0-2.47,.07,.39-.73,.85-1.45,1.39-2.16,.9-.02,1.76,.03,2.58,.13Z"/><path class="cls-1" d="M86.56,31.35c.85-.07,1.67-.09,2.47-.07-.11,.16-.21,.32-.31,.48-.78-.03-1.59,0-2.43,.09,.08-.17,.17-.33,.27-.5Z"/><path class="cls-1" d="M88.72,31.76c-.1,.15-.19,.31-.28,.46-.77,0-1.57,.03-2.4,.13,.08-.17,.16-.33,.25-.5,.84-.09,1.65-.12,2.43-.09Z"/><path class="cls-1" d="M86.72,29.23c-.52,.74-.96,1.49-1.34,2.25-5.14,.67-11.12,3.1-16.61,7.09-5.5,3.99-9.65,8.93-11.88,13.61-.84,.12-1.7,.32-2.56,.57,2.16-5.38,6.78-11.09,13.26-15.8,6.49-4.72,13.35-7.34,19.13-7.72Z"/><path class="cls-1" d="M70.2,67.12c.16-.03,.33-.06,.49-.1-.04,.72-.13,1.45-.25,2.19-.17,.04-.35,.08-.52,.11,.14-.75,.23-1.48,.28-2.2Z"/><path class="cls-1" d="M69.7,67.23c.17-.03,.33-.06,.5-.11-.05,.72-.14,1.45-.28,2.2-.17,.04-.34,.07-.51,.09,.14-.74,.23-1.47,.29-2.18Z"/><path class="cls-1" d="M65.36,54.86c3.21,2.33,4.65,6.44,4.41,11.37-.72,.16-1.43,.28-2.12,.36,.33-4.48-.79-8.17-3.46-10.11-1.98-1.44-4.62-1.77-7.54-1.15,.23-.74,.52-1.5,.87-2.26,2.96-.35,5.66,.21,7.84,1.79Z"/><path class="cls-1" d="M69.7,67.23c-.06,.71-.15,1.44-.29,2.18-.74,.14-1.47,.23-2.18,.29,.15-.72,.26-1.44,.33-2.14,.7-.07,1.42-.18,2.14-.33Z"/><path class="cls-1" d="M67.02,70.69c.72-.04,1.45-.13,2.19-.25-1.03,4.88-3.45,10.24-7.18,15.37s-8.08,9.09-12.4,11.59c-.12-.74-.26-1.47-.43-2.17,3.93-2.39,7.9-6.03,11.21-10.59,3.32-4.57,5.56-9.47,6.61-13.95Z"/><path class="cls-1" d="M67.07,67.61c.16-.01,.33-.02,.49-.05-.07,.7-.18,1.42-.33,2.14-.17,.02-.34,.04-.51,.04,.16-.72,.28-1.44,.35-2.13Z"/><path class="cls-1" d="M66.59,67.65c.16,0,.32-.02,.48-.04-.07,.69-.19,1.41-.35,2.13-.17,.02-.33,.03-.49,.03,.16-.72,.28-1.43,.36-2.12Z"/><path class="cls-1" d="M66.59,67.65c-.08,.69-.2,1.4-.36,2.12-4.93,.24-9.04-1.2-11.37-4.41-1.58-2.18-2.14-4.88-1.79-7.84,.76-.35,1.52-.64,2.26-.87-.62,2.92-.29,5.56,1.15,7.54,1.94,2.67,5.63,3.79,10.11,3.46Z"/><path class="cls-1" d="M56.89,52.18c-.09,.18-.17,.35-.25,.53-.83,.14-1.67,.35-2.53,.62,.07-.2,.15-.39,.22-.58,.86-.25,1.72-.45,2.56-.57Z"/><path class="cls-1" d="M56.64,52.71c-.08,.18-.16,.35-.23,.53-.82,.16-1.66,.38-2.5,.67,.06-.2,.13-.39,.2-.58,.86-.27,1.7-.48,2.53-.62Z"/><path class="cls-1" d="M56.41,53.24c-.33,.79-.61,1.57-.83,2.34-.77,.22-1.55,.5-2.34,.83,.16-.82,.38-1.66,.67-2.5,.84-.29,1.68-.51,2.5-.67Z"/><path class="cls-1" d="M55.58,55.58c-.04,.18-.09,.36-.13,.54-.75,.22-1.52,.5-2.3,.83l.09-.54c.79-.33,1.57-.61,2.34-.83Z"/><path class="cls-1" d="M55.45,56.12c-.05,.18-.09,.35-.12,.53-.74,.23-1.5,.52-2.26,.87,.02-.19,.05-.38,.08-.57,.78-.33,1.55-.61,2.3-.83Z"/><path class="cls-1" d="M52.75,54.33c-.25,.86-.45,1.72-.57,2.56-4.68,2.23-9.62,6.38-13.61,11.88-3.99,5.49-6.42,11.47-7.09,16.61-.76,.38-1.51,.82-2.25,1.34,.38-5.78,3-12.64,7.72-19.13,4.71-6.48,10.42-11.1,15.8-13.26Z"/><path class="cls-1" d="M49.63,97.4c-.16,.08-.31,.17-.46,.25-.11-.75-.24-1.47-.41-2.17,.15-.08,.29-.16,.44-.25,.17,.7,.31,1.43,.43,2.17Z"/><path class="cls-1" d="M48.76,95.48c.17,.7,.3,1.42,.41,2.17-.15,.09-.3,.17-.45,.24-.1-.74-.24-1.46-.4-2.16,.15-.07,.3-.16,.44-.25Z"/><path class="cls-1" d="M48.85,98.93c.52,4.96-.13,10.82-2.09,16.85s-4.88,11.15-8.21,14.86c-.34-.68-.7-1.33-1.09-1.95,3.01-3.48,5.66-8.17,7.4-13.53s2.35-10.71,1.97-15.29c.67-.28,1.35-.59,2.02-.94Z"/><path class="cls-1" d="M48.32,95.73c.16,.7,.3,1.42,.4,2.16-.66,.36-1.33,.68-1.99,.97-.09-.74-.2-1.45-.35-2.14,.64-.29,1.29-.62,1.94-.99Z"/><path class="cls-1" d="M46.73,98.86c-.15,.06-.31,.12-.46,.18-.08-.73-.19-1.44-.32-2.12,.14-.06,.28-.13,.43-.2,.15,.69,.26,1.4,.35,2.14Z"/><path class="cls-1" d="M48.08,94.77c-.64,.37-1.28,.7-1.91,1-1.08-4.36-3.28-7.54-6.42-8.56-2.33-.76-4.94-.25-7.53,1.23,0-.77,.03-1.57,.13-2.4h.01c2.7-1.25,5.44-1.56,8-.73,3.78,1.23,6.42,4.69,7.72,9.46Z"/><path class="cls-1" d="M45.95,96.92c.13,.68,.24,1.39,.32,2.12-.16,.07-.31,.13-.46,.19-.08-.73-.18-1.44-.31-2.13l.45-.18Z"/><path class="cls-1" d="M45.5,97.1c.13,.69,.23,1.4,.31,2.13-4.63,1.75-8.98,1.65-12.19-.68-2.18-1.58-3.54-3.98-4.12-6.91,.62-.57,1.24-1.07,1.87-1.52,.32,2.97,1.45,5.37,3.43,6.81,2.67,1.94,6.53,1.86,10.7,.17Z"/><path class="cls-1" d="M38.55,130.64c-.12,.13-.24,.26-.36,.38-.33-.68-.69-1.33-1.07-1.94,.12-.13,.23-.26,.34-.39,.39,.62,.75,1.27,1.09,1.95Z"/><path class="cls-1" d="M38.19,131.02c-.11,.13-.23,.26-.35,.38-.33-.68-.68-1.33-1.05-1.95,.11-.12,.22-.24,.33-.37,.38,.61,.74,1.26,1.07,1.94Z"/><path class="cls-1" d="M36.79,129.45c.37,.62,.72,1.27,1.05,1.95-.53,.54-1.06,1.05-1.6,1.51-.31-.68-.64-1.32-.99-1.93,.52-.47,1.03-.98,1.54-1.53Z"/><path class="cls-1" d="M36.24,132.91c-.13,.12-.25,.23-.38,.33-.3-.68-.63-1.32-.97-1.93l.36-.33c.35,.61,.68,1.25,.99,1.93Z"/><path class="cls-1" d="M35.86,133.24c-.13,.12-.26,.22-.39,.32-.29-.68-.61-1.33-.95-1.94,.12-.1,.25-.2,.37-.31,.34,.61,.67,1.25,.97,1.93Z"/><path class="cls-1" d="M34.52,131.62c.34,.61,.66,1.26,.95,1.94-3.86,3.09-8.02,4.34-11.79,3.11-2.56-.83-4.6-2.69-6.06-5.29,.41-.74,.85-1.42,1.31-2.04,1.22,2.73,3.03,4.67,5.36,5.43,3.14,1.02,6.79-.25,10.23-3.15Z"/><path class="cls-1" d="M31.48,85.38c-.04,.2-.06,.39-.08,.58-.74,.39-1.47,.85-2.2,1.37,0-.2,.02-.4,.03-.61,.74-.52,1.49-.96,2.25-1.34Z"/><path class="cls-1" d="M31.4,85.96c-.02,.2-.04,.4-.05,.6-.73,.39-1.45,.85-2.16,1.39-.01-.2,0-.41,.01-.62,.73-.52,1.46-.98,2.2-1.37Z"/><path class="cls-1" d="M31.31,89.57c.02,.19,.04,.37,.06,.55-.63,.45-1.25,.95-1.87,1.52-.04-.18-.07-.37-.1-.56,.63-.56,1.27-1.06,1.91-1.51Z"/><path class="cls-1" d="M31.28,89.03l.03,.54c-.64,.45-1.28,.95-1.91,1.51-.03-.18-.05-.36-.08-.55,.65-.56,1.3-1.06,1.96-1.5Z"/><path class="cls-1" d="M31.35,86.56c-.07,.85-.09,1.67-.07,2.47-.66,.44-1.31,.94-1.96,1.5-.1-.82-.15-1.68-.13-2.58,.71-.54,1.43-1,2.16-1.39Z"/><path class="cls-1" d="M28.22,88.7c.02,.91,.1,1.78,.24,2.61-3.77,3.57-7.18,9.05-9.28,15.51s-2.56,12.9-1.61,18c-.6,.59-1.18,1.25-1.72,1.97-1.43-5.62-1.05-12.96,1.43-20.59s6.49-13.79,10.94-17.5Z"/><path class="cls-1" d="M18.71,128.85c.07,.16,.14,.33,.22,.49-.46,.62-.9,1.3-1.31,2.04-.09-.16-.18-.33-.26-.5,.42-.73,.88-1.41,1.35-2.03Z"/><path class="cls-1" d="M18.52,128.33c.06,.17,.13,.35,.19,.52-.47,.62-.93,1.3-1.35,2.03-.09-.16-.17-.33-.25-.51,.44-.74,.91-1.42,1.41-2.04Z"/><path class="cls-1" d="M17.81,125.96c.19,.84,.43,1.63,.71,2.37-.5,.62-.97,1.3-1.41,2.04-.36-.75-.67-1.55-.93-2.4,.51-.73,1.05-1.4,1.63-2.01Z"/><path class="cls-1" d="M17.68,125.4c.04,.19,.08,.38,.13,.56-.58,.61-1.12,1.28-1.63,2.01-.06-.19-.12-.38-.17-.58,.52-.72,1.08-1.39,1.67-1.99Z"/><path class="cls-1" d="M17.57,124.82c.03,.2,.07,.39,.11,.58-.59,.6-1.15,1.27-1.67,1.99-.06-.19-.11-.4-.16-.6,.54-.72,1.12-1.38,1.72-1.97Z"/></svg>