<?xml version="1.0" encoding="UTF-8"?><svg id="Layer_1" xmlns="http://www.w3.org/2000/svg" viewBox="0 0 1920 478"><defs><style>.cls-1{fill:#257a7e;}</style></defs><path class="cls-1" d="M2.37,408.67c.59-.31,60.37-31.58,159.74-47.15,91.83-14.39,237.01-17.86,407.13,47.36,91.8,35.19,169.97,52.45,239.67,52.45,30.52,0,59.43-3.31,87.13-9.87,81.65-19.35,143.88-64.81,209.76-112.95,109.35-79.9,233.29-170.45,481.15-162.5,53.13,1.7,103.95-6.84,150.99-25.41,37.63-14.85,72.94-36.11,104.95-63.17,42.85-36.23,67.85-72.58,77.11-87.42H0V409.1c.79,.1,1.62-.03,2.37-.43Z"/></svg>