<?xml version="1.0" encoding="UTF-8"?><svg id="Layer_1" xmlns="http://www.w3.org/2000/svg" viewBox="0 0 1920 478"><defs><style>.cls-1{fill:#257a7e;}</style></defs><path class="cls-1" d="M1842.8,87.42c-32.01,27.07-67.32,48.32-104.95,63.17-47.04,18.57-97.86,27.11-150.98,25.41-247.85-7.94-371.78,82.6-481.13,162.5-65.88,48.13-128.1,93.6-209.75,112.95-27.7,6.56-56.6,9.87-87.12,9.87-69.7,0-147.86-17.26-239.66-52.45-170.11-65.22-315.28-61.75-407.11-47.36C62.74,377.09,2.97,408.36,2.37,408.67c-.76,.4-1.58,.53-2.37,.43v68.9H1920V-.15c-9.18,14.74-34.21,51.22-77.2,87.57Z"/></svg>