<?xml version="1.0" encoding="UTF-8"?><svg id="Layer_1" xmlns="http://www.w3.org/2000/svg" viewBox="0 0 1121 240.5"><defs><style>.cls-1{fill:#fbd094;}.cls-2{fill:#bc9c6f;}.cls-3{fill:#fde3bf;}</style></defs><path class="cls-3" d="M841.63,238.41s-.06,0-.1,0c-19.04-.45-39.06-2.2-59.51-5.2-2.19-.32-3.7-2.35-3.38-4.54s2.34-3.69,4.54-3.38c20.13,2.95,39.82,4.67,58.54,5.12,2.21,.05,3.96,1.89,3.9,4.09-.05,2.18-1.83,3.91-4,3.91Zm39.41-.95c-2.07,0-3.83-1.6-3.98-3.71-.16-2.2,1.49-4.12,3.69-4.28,19.66-1.46,39.08-4.49,57.72-9.01,2.16-.51,4.31,.8,4.83,2.94,.52,2.15-.8,4.31-2.94,4.83-19.06,4.62-38.92,7.72-59.02,9.21-.1,0-.2,.01-.3,.01Zm-137.32-11.25c-.28,0-.56-.03-.84-.09-18.49-3.96-37.9-8.96-57.71-14.86-2.12-.63-3.32-2.86-2.69-4.98,.63-2.12,2.86-3.33,4.98-2.69,19.6,5.84,38.81,10.79,57.09,14.7,2.16,.46,3.54,2.59,3.07,4.75-.4,1.88-2.06,3.16-3.91,3.16Zm233.41-9.27c-1.63,0-3.17-1.01-3.76-2.63-.75-2.08,.32-4.37,2.39-5.13,17.72-6.44,35.18-14.31,53.4-24.07,1.95-1.04,4.37-.31,5.42,1.64,1.04,1.95,.31,4.37-1.64,5.42-18.56,9.94-36.37,17.96-54.44,24.54-.45,.16-.91,.24-1.37,.24Zm-328.43-17.62c-.43,0-.87-.07-1.3-.22-11.62-4-23.62-8.37-35.67-13-6.64-2.54-13.38-5.04-20.04-7.41-2.08-.74-3.17-3.03-2.42-5.11,.74-2.08,3.03-3.16,5.11-2.42,6.72,2.4,13.52,4.91,20.21,7.48,11.97,4.59,23.89,8.93,35.42,12.9,2.09,.72,3.2,3,2.48,5.08-.57,1.66-2.12,2.7-3.78,2.7Zm416.44-26.59c-1.33,0-2.63-.66-3.39-1.87-1.18-1.87-.61-4.34,1.26-5.52,14.43-9.07,29.95-19.59,48.85-33.1,1.8-1.28,4.29-.87,5.58,.93s.87,4.3-.93,5.58c-19.03,13.6-34.68,24.2-49.25,33.36-.66,.42-1.4,.62-2.13,.62Zm-567.76-21.82c-2.15-.5-3.49-2.65-2.99-4.8,.5-2.15,2.65-3.49,4.8-2.99,19.12,4.45,38.46,9.68,57.5,15.53,2.11,.65,3.3,2.89,2.65,5-.53,1.72-2.11,2.83-3.82,2.83-.39,0-.78-.06-1.18-.18"/><path class="cls-1" d="M822.63,180.41s-.06,0-.1,0c-19.04-.45-39.06-2.2-59.51-5.2-2.19-.32-3.7-2.35-3.38-4.54s2.34-3.69,4.54-3.38c20.13,2.95,39.82,4.67,58.54,5.12,2.21,.05,3.96,1.89,3.9,4.09-.05,2.18-1.83,3.91-4,3.91Zm39.41-.95c-2.07,0-3.83-1.6-3.98-3.71-.16-2.2,1.49-4.12,3.69-4.28,19.66-1.46,39.08-4.49,57.72-9.01,2.16-.51,4.31,.8,4.83,2.94,.52,2.15-.8,4.31-2.94,4.83-19.06,4.62-38.92,7.72-59.02,9.21-.1,0-.2,.01-.3,.01Zm-137.32-11.25c-.28,0-.56-.03-.84-.09-18.49-3.96-37.9-8.96-57.71-14.86-2.12-.63-3.32-2.86-2.69-4.98,.63-2.12,2.86-3.33,4.98-2.69,19.6,5.84,38.81,10.79,57.09,14.7,2.16,.46,3.54,2.59,3.07,4.75-.4,1.88-2.06,3.16-3.91,3.16Zm233.41-9.27c-1.63,0-3.17-1.01-3.76-2.63-.75-2.08,.32-4.37,2.39-5.13,17.72-6.44,35.18-14.31,53.4-24.07,1.95-1.04,4.37-.31,5.42,1.64,1.04,1.95,.31,4.37-1.64,5.42-18.56,9.94-36.37,17.96-54.44,24.54-.45,.16-.91,.24-1.37,.24Zm-328.43-17.62c-.43,0-.87-.07-1.3-.22-11.62-4-23.62-8.37-35.67-13-6.64-2.54-13.38-5.04-20.04-7.41-2.08-.74-3.17-3.03-2.42-5.11,.74-2.08,3.03-3.16,5.11-2.42,6.72,2.4,13.52,4.91,20.21,7.48,11.97,4.59,23.89,8.93,35.42,12.9,2.09,.72,3.2,3,2.48,5.08-.57,1.66-2.12,2.7-3.78,2.7Zm-93.18-32.85c-.39,0-.78-.06-1.18-.18-18.86-5.8-38.02-10.97-56.96-15.38-2.15-.5-3.49-2.65-2.99-4.8,.5-2.15,2.65-3.49,4.8-2.99,19.12,4.45,38.46,9.68,57.5,15.53,2.11,.65,3.3,2.89,2.65,5-.53,1.72-2.11,2.83-3.82,2.83Zm-95.92-23.5c-.24,0-.48-.02-.73-.07-19.37-3.54-39-6.4-58.37-8.48-2.2-.24-3.79-2.21-3.55-4.41,.24-2.2,2.2-3.79,4.41-3.55,19.56,2.1,39.4,4.98,58.96,8.56,2.17,.4,3.61,2.48,3.21,4.65-.35,1.93-2.04,3.28-3.93,3.28Zm-98.06-11.75c-.08,0-.15,0-.23,0-14.32-.81-28.8-1.22-43.04-1.22-5.28,0-10.64,.06-15.92,.17-.03,0-.06,0-.09,0-2.17,0-3.95-1.74-4-3.92-.05-2.21,1.71-4.04,3.92-4.08,5.33-.11,10.75-.17,16.09-.17,14.39,0,29.02,.42,43.49,1.23,2.21,.12,3.89,2.01,3.77,4.22-.12,2.13-1.88,3.77-3.99,3.77Z"/><g><path class="cls-2" d="M4,64.38c-1.43,0-2.82-.77-3.54-2.13-1.03-1.95-.29-4.37,1.66-5.41,.4-.21,9.93-5.24,27.82-12.32,2.05-.81,4.38,.19,5.19,2.25,.81,2.05-.19,4.38-2.25,5.19-17.43,6.9-26.93,11.9-27.02,11.95-.6,.32-1.24,.47-1.87,.47Z"/><path class="cls-2" d="M802.63,116.41s-.06,0-.1,0c-19.04-.45-39.06-2.2-59.51-5.2-2.19-.32-3.7-2.35-3.38-4.54s2.34-3.69,4.54-3.38c20.13,2.95,39.82,4.67,58.54,5.12,2.21,.05,3.96,1.89,3.9,4.09-.05,2.18-1.83,3.91-4,3.91Zm-97.91-12.2c-.28,0-.56-.03-.84-.09-18.49-3.96-37.9-8.96-57.71-14.86-2.12-.63-3.32-2.86-2.69-4.98,.63-2.12,2.86-3.33,4.98-2.69,19.6,5.84,38.81,10.79,57.09,14.7,2.16,.46,3.54,2.59,3.07,4.75-.4,1.88-2.06,3.16-3.91,3.16Zm-95.03-26.88c-.43,0-.87-.07-1.3-.22-11.62-4-23.62-8.37-35.67-13-6.64-2.54-13.38-5.04-20.04-7.41-2.08-.74-3.17-3.03-2.42-5.11,.74-2.08,3.03-3.16,5.11-2.42,6.72,2.4,13.52,4.91,20.21,7.48,11.97,4.59,23.89,8.93,35.42,12.9,2.09,.72,3.2,3,2.48,5.08-.57,1.66-2.12,2.7-3.78,2.7Zm-93.18-32.85c-.39,0-.78-.06-1.18-.18-18.86-5.8-38.02-10.97-56.96-15.38-2.15-.5-3.49-2.65-2.99-4.8,.5-2.15,2.65-3.49,4.8-2.99,19.12,4.45,38.46,9.68,57.5,15.53,2.11,.65,3.3,2.89,2.65,5-.53,1.72-2.11,2.83-3.82,2.83Zm-447.82-5.37c-1.7,0-3.28-1.09-3.82-2.8-.66-2.11,.51-4.35,2.62-5.01,18.5-5.8,37.91-10.9,57.69-15.16,2.15-.47,4.29,.91,4.75,3.07,.46,2.16-.91,4.29-3.07,4.75-19.54,4.21-38.71,9.25-56.98,14.97-.4,.12-.8,.18-1.2,.18ZM420.59,20.98c-.24,0-.48-.02-.73-.07-19.37-3.54-39-6.4-58.37-8.48-2.2-.24-3.79-2.21-3.55-4.41,.24-2.2,2.2-3.79,4.41-3.55,19.56,2.1,39.4,4.98,58.96,8.56,2.17,.4,3.61,2.48,3.21,4.65-.35,1.93-2.04,3.28-3.93,3.28Zm-255.71-4.15c-1.94,0-3.64-1.41-3.95-3.38-.34-2.18,1.15-4.23,3.33-4.57,19.44-3.05,39.36-5.34,59.22-6.81,2.2-.17,4.12,1.49,4.29,3.69,.16,2.2-1.49,4.12-3.69,4.29-19.64,1.46-39.34,3.72-58.57,6.74-.21,.03-.42,.05-.63,.05Zm157.65-7.6c-.08,0-.15,0-.23,0-14.32-.81-28.8-1.22-43.04-1.22-5.28,0-10.64,.06-15.92,.17-.03,0-.06,0-.09,0-2.17,0-3.95-1.74-4-3.92-.05-2.21,1.71-4.04,3.92-4.08C268.51,.06,273.92,0,279.26,0c14.39,0,29.02,.42,43.49,1.23,2.21,.12,3.89,2.01,3.77,4.22-.12,2.13-1.88,3.77-3.99,3.77Z"/></g></svg>