<?xml version="1.0" encoding="UTF-8"?><svg id="Layer_1" xmlns="http://www.w3.org/2000/svg" viewBox="0 0 1920 651"><defs><style>.cls-1{fill:#4abeb8;}.cls-2{fill:#388f8a;}.cls-3{fill:#255f5c;}.cls-4{fill:#92d8d4;}.cls-5{fill:#6ecbc6;}</style></defs><g><path class="cls-3" d="M0,435.14c-1.43,0-2.82-.77-3.54-2.13-1.03-1.95-.29-4.37,1.66-5.41,.4-.21,9.93-5.24,27.82-12.32,2.05-.81,4.38,.19,5.19,2.25,.81,2.05-.19,4.38-2.25,5.19-17.43,6.9-26.93,11.9-27.02,11.95-.6,.32-1.24,.47-1.87,.47Z"/><path class="cls-3" d="M798.63,487.17s-.06,0-.1,0c-19.04-.45-39.06-2.2-59.51-5.2-2.19-.32-3.7-2.35-3.38-4.54,.32-2.19,2.34-3.7,4.54-3.38,20.13,2.95,39.82,4.67,58.54,5.11,2.21,.05,3.96,1.89,3.9,4.09-.05,2.18-1.83,3.91-4,3.91Zm39.41-.95c-2.08,0-3.83-1.6-3.99-3.7-.16-2.2,1.49-4.12,3.69-4.28,19.67-1.46,39.08-4.49,57.72-9.01,2.16-.52,4.31,.8,4.83,2.94,.52,2.15-.8,4.31-2.94,4.83-19.06,4.62-38.92,7.72-59.02,9.21-.1,0-.2,.01-.3,.01Zm-137.32-11.25c-.28,0-.56-.03-.84-.09-18.5-3.96-37.91-8.96-57.71-14.86-2.12-.63-3.32-2.86-2.69-4.98,.63-2.12,2.86-3.32,4.98-2.69,19.59,5.84,38.8,10.78,57.1,14.7,2.16,.46,3.54,2.59,3.07,4.75-.4,1.88-2.06,3.16-3.91,3.16Zm233.41-9.27c-1.63,0-3.17-1.01-3.76-2.63-.75-2.08,.32-4.37,2.39-5.13,17.72-6.44,35.19-14.31,53.4-24.07,1.95-1.05,4.37-.31,5.41,1.64,1.04,1.95,.31,4.37-1.64,5.41-18.55,9.94-36.36,17.96-54.44,24.54-.45,.16-.91,.24-1.37,.24Zm-328.43-17.62c-.43,0-.87-.07-1.3-.22-11.6-3.99-23.6-8.37-35.67-13-6.64-2.55-13.38-5.04-20.04-7.41-2.08-.74-3.17-3.03-2.42-5.11,.74-2.08,3.03-3.16,5.11-2.42,6.71,2.39,13.51,4.91,20.21,7.48,11.99,4.6,23.91,8.94,35.42,12.9,2.09,.72,3.2,3,2.48,5.08-.57,1.66-2.12,2.7-3.78,2.7Zm416.44-26.59c-1.33,0-2.63-.66-3.39-1.87-1.18-1.87-.61-4.34,1.26-5.52,14.43-9.07,29.95-19.59,48.85-33.1,1.8-1.28,4.29-.87,5.58,.93,1.29,1.8,.87,4.3-.93,5.58-19.03,13.6-34.68,24.2-49.25,33.36-.66,.42-1.4,.61-2.12,.61Zm-509.62-6.26c-.39,0-.78-.06-1.18-.18-18.86-5.8-38.03-10.97-56.96-15.38-2.15-.5-3.49-2.65-2.99-4.8,.5-2.15,2.65-3.49,4.8-2.99,19.11,4.45,38.46,9.68,57.5,15.53,2.11,.65,3.3,2.89,2.65,5-.53,1.72-2.11,2.83-3.82,2.83Zm-447.82-5.37c-1.7,0-3.28-1.09-3.82-2.8-.66-2.11,.51-4.35,2.62-5.01,18.5-5.8,37.91-10.9,57.69-15.16,2.15-.46,4.29,.91,4.75,3.07,.46,2.16-.91,4.29-3.07,4.75-19.54,4.21-38.71,9.25-56.98,14.97-.4,.12-.8,.18-1.2,.18Zm351.9-18.13c-.24,0-.48-.02-.72-.07-19.37-3.55-39.01-6.4-58.37-8.48-2.2-.24-3.79-2.21-3.55-4.4,.24-2.2,2.22-3.78,4.4-3.55,19.55,2.1,39.39,4.98,58.96,8.56,2.17,.4,3.61,2.48,3.21,4.65-.35,1.93-2.04,3.28-3.93,3.28Zm-255.71-4.15c-1.94,0-3.64-1.41-3.95-3.38-.34-2.18,1.15-4.23,3.33-4.57,19.44-3.05,39.36-5.34,59.22-6.82,2.2-.16,4.12,1.49,4.29,3.69,.16,2.2-1.49,4.12-3.69,4.29-19.64,1.46-39.35,3.73-58.57,6.74-.21,.03-.42,.05-.62,.05Zm157.65-7.6c-.08,0-.15,0-.23,0-14.32-.81-28.8-1.22-43.04-1.22-5.28,0-10.64,.06-15.92,.17-.03,0-.06,0-.09,0-2.17,0-3.95-1.74-4-3.92-.05-2.21,1.71-4.04,3.92-4.08,5.33-.11,10.75-.17,16.09-.17,14.39,0,29.03,.41,43.49,1.23,2.21,.12,3.89,2.01,3.77,4.22-.12,2.13-1.88,3.77-3.99,3.77Zm784.63-14.91c-1.23,0-2.45-.57-3.23-1.64-1.3-1.78-.91-4.29,.87-5.59,15.5-11.32,31.52-23.03,48.18-34.66,1.81-1.26,4.31-.82,5.57,.99,1.26,1.81,.82,4.31-.99,5.57-16.59,11.58-32.58,23.26-48.04,34.56-.71,.52-1.54,.77-2.36,.77Zm80.88-56.68c-1.31,0-2.6-.65-3.36-1.83-1.2-1.85-.67-4.33,1.19-5.53,17.69-11.44,34.42-21.41,51.13-30.49,1.94-1.06,4.37-.34,5.42,1.61,1.05,1.94,.34,4.37-1.61,5.42-16.54,8.98-33.09,18.85-50.61,30.18-.67,.43-1.42,.64-2.17,.64Zm86.1-48.12c-1.51,0-2.95-.85-3.63-2.31-.93-2-.07-4.38,1.93-5.32,18.06-8.42,36.62-16,55.17-22.51,2.09-.73,4.37,.36,5.1,2.45,.73,2.08-.37,4.37-2.45,5.1-18.3,6.42-36.62,13.9-54.44,22.21-.55,.26-1.12,.38-1.69,.38Zm92.43-34.19c-1.75,0-3.36-1.16-3.85-2.93-.59-2.13,.65-4.33,2.78-4.93,18.77-5.23,38.31-9.68,58.06-13.23,2.17-.39,4.25,1.05,4.64,3.23,.39,2.17-1.06,4.25-3.23,4.64-19.5,3.5-38.79,7.9-57.32,13.06-.36,.1-.72,.15-1.08,.15Zm96.7-18.99c-2,0-3.72-1.49-3.97-3.52-.27-2.19,1.3-4.19,3.49-4.45,19.14-2.31,39.08-3.93,59.28-4.81,2.24-.09,4.08,1.62,4.17,3.82,.1,2.21-1.62,4.07-3.82,4.17-20,.87-39.73,2.47-58.67,4.76-.16,.02-.33,.03-.49,.03Zm140.41-4.88c-4.39,0-8.87-.07-13.32-.21-9.62-.31-19.25-.47-28.62-.49-2.21,0-4-1.8-3.99-4.01,0-2.21,1.79-3.99,4-3.99h0c9.44,.02,19.15,.19,28.86,.5,10.16,.33,20.31,.27,30.23-.16,2.23-.09,4.07,1.62,4.17,3.82,.1,2.21-1.62,4.07-3.82,4.17-5.78,.25-11.68,.38-17.52,.38Zm56.66-4.11c-1.95,0-3.66-1.43-3.95-3.41-.32-2.19,1.19-4.22,3.37-4.54,19.4-2.88,38.59-7.34,57.03-13.26,2.11-.68,4.36,.48,5.03,2.58s-.48,4.36-2.58,5.03c-18.86,6.06-38.47,10.62-58.31,13.56-.2,.03-.4,.04-.59,.04Zm94.56-27.56c-1.53,0-2.99-.88-3.65-2.36-.9-2.02,0-4.38,2.01-5.29,17.65-7.91,34.92-17.41,51.34-28.23,1.85-1.22,4.33-.71,5.54,1.14,1.22,1.84,.71,4.33-1.14,5.54-16.78,11.06-34.43,20.76-52.47,28.85-.53,.24-1.09,.35-1.63,.35Zm83.74-51.96c-1.16,0-2.31-.5-3.1-1.47-1.4-1.71-1.15-4.23,.57-5.63,15.04-12.29,29.36-25.89,42.55-40.4,1.49-1.64,4.02-1.75,5.65-.27,1.63,1.49,1.75,4.02,.27,5.65-13.46,14.8-28.07,28.67-43.41,41.21-.74,.61-1.64,.9-2.53,.9Z"/><path class="cls-3" d="M1903.49,46.21c-.82,0-1.65-.25-2.36-.77-1.78-1.31-2.17-3.81-.86-5.59,10.79-14.71,16.17-24.49,16.22-24.58,1.06-1.94,3.49-2.65,5.43-1.59,1.94,1.06,2.65,3.49,1.59,5.43-.23,.41-5.66,10.29-16.79,25.47-.78,1.07-2,1.64-3.23,1.64Z"/></g><path class="cls-2" d="M808.7,527.29c-10.03,0-20.4-.37-30.8-1.09-2.2-.15-3.87-2.06-3.71-4.27,.15-2.2,2.08-3.87,4.27-3.71,10.22,.71,20.4,1.07,30.25,1.07s19.57-.36,29.04-1.06c2.19-.17,4.12,1.49,4.28,3.69,.16,2.2-1.49,4.12-3.69,4.28-9.66,.72-19.63,1.08-29.63,1.08Zm-70.27-5.45c-.2,0-.39-.01-.59-.04-18.94-2.82-38.85-6.79-59.18-11.81-2.14-.53-3.45-2.7-2.92-4.84,.53-2.14,2.7-3.46,4.84-2.92,20.09,4.96,39.75,8.89,58.44,11.67,2.18,.33,3.69,2.36,3.37,4.55-.29,1.99-2,3.41-3.95,3.41Zm139.13-.7c-1.89,0-3.57-1.35-3.93-3.27-.4-2.17,1.03-4.26,3.2-4.66,19.48-3.61,38.12-8.73,57-15.66,2.07-.76,4.37,.3,5.13,2.38,.76,2.07-.3,4.37-2.38,5.13-19.31,7.08-38.38,12.32-58.3,16.01-.25,.05-.49,.07-.73,.07Zm-236.5-21.63c-.38,0-.77-.06-1.15-.17-18.34-5.52-37.55-11.97-57.09-19.17-2.07-.76-3.13-3.06-2.37-5.14,.76-2.07,3.06-3.13,5.14-2.37,19.39,7.15,38.45,13.55,56.63,19.02,2.12,.64,3.31,2.87,2.68,4.98-.52,1.73-2.11,2.85-3.83,2.85Zm330.87-9.87c-1.48,0-2.91-.83-3.6-2.25-.97-1.99-.14-4.38,1.85-5.35,16.59-8.06,33.54-17.6,51.8-29.17,1.87-1.18,4.34-.63,5.52,1.24,1.18,1.87,.63,4.34-1.24,5.52-18.52,11.73-35.72,21.42-52.58,29.61-.56,.27-1.16,.4-1.75,.4ZM0,475.14c-1.43,0-2.82-.77-3.54-2.13-1.03-1.95-.29-4.37,1.66-5.41,.82-.43,20.44-10.76,56.31-22.63,2.1-.69,4.36,.44,5.05,2.54s-.44,4.36-2.54,5.05c-35.16,11.65-54.88,22.01-55.08,22.11-.6,.32-1.24,.47-1.87,.47Zm546.68-8.63c-.44,0-.89-.07-1.33-.23-18.85-6.64-38.01-12.67-56.96-17.92-2.13-.59-3.38-2.79-2.79-4.92,.59-2.13,2.79-3.38,4.92-2.79,19.12,5.3,38.46,11.39,57.48,18.09,2.08,.73,3.18,3.02,2.44,5.1-.58,1.64-2.12,2.67-3.77,2.67Zm-452.62-25.06c-1.78,0-3.4-1.19-3.87-2.99-.56-2.14,.72-4.32,2.86-4.88,19.13-4.99,38.99-9.23,59.01-12.61,2.18-.37,4.24,1.1,4.61,3.28,.37,2.18-1.1,4.24-3.28,4.61-19.8,3.34-39.42,7.54-58.33,12.47-.34,.09-.68,.13-1.01,.13Zm356.63-2.72c-.29,0-.59-.03-.89-.1-19.45-4.41-39.18-8.14-58.65-11.09-2.18-.33-3.69-2.37-3.36-4.55,.33-2.19,2.36-3.69,4.55-3.36,19.67,2.97,39.59,6.74,59.23,11.19,2.15,.49,3.5,2.63,3.01,4.79-.42,1.86-2.07,3.12-3.9,3.12Zm606.65-.67c-1.26,0-2.51-.6-3.28-1.71-1.26-1.81-.82-4.31,.99-5.57,15.13-10.55,29.9-21.35,45.54-32.78l3.05-2.23c1.78-1.3,4.29-.91,5.59,.87,1.3,1.78,.91,4.29-.87,5.59l-3.05,2.23c-15.68,11.46-30.48,22.27-45.68,32.88-.7,.49-1.5,.72-2.29,.72Zm-864.99-14.69c-2.01,0-3.74-1.51-3.97-3.56-.25-2.2,1.33-4.17,3.53-4.42,19.8-2.22,40.04-3.66,60.16-4.27,2.22-.08,4.05,1.67,4.12,3.88s-1.67,4.05-3.88,4.12c-19.9,.61-39.93,2.03-59.52,4.22-.15,.02-.3,.03-.45,.03Zm159.72-.75c-.13,0-.27,0-.4-.02-19.81-1.98-39.85-3.21-59.56-3.64-2.21-.05-3.96-1.88-3.91-4.09,.05-2.21,1.93-3.98,4.09-3.91,19.92,.44,40.17,1.68,60.18,3.68,2.2,.22,3.8,2.18,3.58,4.38-.21,2.06-1.95,3.6-3.98,3.6Zm786.32-43.05c-1.25,0-2.48-.58-3.26-1.68-1.28-1.8-.86-4.3,.94-5.58,18.64-13.28,34.45-24.02,49.76-33.81,1.86-1.19,4.34-.65,5.52,1.22,1.19,1.86,.65,4.33-1.22,5.52-15.2,9.71-30.9,20.39-49.43,33.58-.7,.5-1.51,.74-2.32,.74Zm83.77-54.4c-1.39,0-2.74-.73-3.48-2.02-1.09-1.92-.43-4.36,1.49-5.46,18.1-10.33,35.65-19.33,53.64-27.51,2.01-.91,4.38-.03,5.3,1.99,.92,2.01,.03,4.38-1.98,5.3-17.77,8.08-35.1,16.97-52.99,27.18-.63,.36-1.31,.53-1.98,.53Zm90.18-42.66c-1.62,0-3.14-.99-3.74-2.59-.78-2.07,.27-4.37,2.33-5.15,18.64-7.02,37.96-13.21,57.41-18.38,2.13-.57,4.33,.7,4.89,2.84s-.7,4.33-2.84,4.89c-19.19,5.11-38.25,11.21-56.65,18.14-.46,.17-.94,.26-1.41,.26Zm95.91-27.28c-1.87,0-3.54-1.32-3.92-3.22-.43-2.17,.98-4.27,3.14-4.7,19.21-3.82,39.24-6.89,59.53-9.11,2.21-.24,4.17,1.34,4.41,3.54,.24,2.2-1.34,4.17-3.54,4.41-20.05,2.2-39.85,5.22-58.84,9-.26,.05-.53,.08-.78,.08Zm98.97-12.35c-2.1,0-3.87-1.64-3.99-3.77-.13-2.21,1.56-4.1,3.77-4.22,15.9-.91,32.38-1.37,48.98-1.37h.03c3.7,0,7.48,.02,11.21,.07,2.21,.03,3.98,1.84,3.95,4.05s-1.87,4.01-4.05,3.95c-3.7-.04-7.44-.07-11.11-.07h-.03c-16.45,0-32.77,.46-48.53,1.35-.08,0-.15,0-.23,0Zm99.93-.72c-2.17,0-3.96-1.74-4-3.93-.04-2.21,1.72-4.03,3.92-4.07,20.01-.37,39.85-2.28,58.99-5.68,2.18-.39,4.25,1.06,4.64,3.24s-1.06,4.25-3.24,4.64c-19.55,3.47-39.81,5.42-60.24,5.8-.03,0-.05,0-.08,0Zm98.51-14.88c-1.73,0-3.32-1.13-3.83-2.87-.62-2.12,.59-4.34,2.71-4.97,18.88-5.56,37.46-12.77,55.23-21.44,1.98-.97,4.38-.14,5.35,1.84,.97,1.99,.14,4.38-1.84,5.35-18.17,8.86-37.17,16.24-56.47,21.92-.38,.11-.76,.16-1.13,.16Z"/><g><path class="cls-1" d="M0,515.14c-1.43,0-2.82-.77-3.54-2.13-1.03-1.95-.29-4.37,1.66-5.41,.4-.21,9.93-5.24,27.82-12.32,2.05-.81,4.38,.19,5.19,2.25,.81,2.05-.19,4.38-2.25,5.19-17.43,6.9-26.93,11.9-27.02,11.95-.6,.32-1.24,.47-1.87,.47Z"/><path class="cls-1" d="M798.63,567.17s-.06,0-.1,0c-19.04-.45-39.06-2.2-59.51-5.2-2.19-.32-3.7-2.35-3.38-4.54s2.34-3.7,4.54-3.38c20.13,2.95,39.82,4.67,58.54,5.11,2.21,.05,3.96,1.89,3.9,4.09-.05,2.18-1.83,3.91-4,3.91Zm39.41-.95c-2.08,0-3.83-1.6-3.99-3.7-.16-2.2,1.49-4.12,3.69-4.28,19.67-1.46,39.08-4.49,57.72-9.01,2.16-.52,4.31,.8,4.83,2.94,.52,2.15-.8,4.31-2.94,4.83-19.06,4.62-38.92,7.72-59.02,9.21-.1,0-.2,.01-.3,.01Zm-137.32-11.25c-.28,0-.56-.03-.84-.09-18.5-3.96-37.91-8.96-57.71-14.86-2.12-.63-3.32-2.86-2.69-4.98,.63-2.12,2.86-3.32,4.98-2.69,19.59,5.84,38.8,10.78,57.1,14.7,2.16,.46,3.54,2.59,3.07,4.75-.4,1.88-2.06,3.16-3.91,3.16Zm233.41-9.27c-1.63,0-3.17-1.01-3.76-2.63-.75-2.08,.32-4.37,2.39-5.13,17.72-6.44,35.19-14.31,53.4-24.07,1.95-1.04,4.37-.31,5.41,1.64,1.04,1.95,.31,4.37-1.64,5.41-18.55,9.94-36.36,17.96-54.44,24.54-.45,.16-.91,.24-1.37,.24Zm-328.43-17.62c-.43,0-.87-.07-1.3-.22-11.6-3.99-23.6-8.37-35.67-13-6.64-2.55-13.38-5.04-20.04-7.41-2.08-.74-3.17-3.03-2.42-5.11,.74-2.08,3.03-3.16,5.11-2.42,6.71,2.39,13.51,4.91,20.21,7.48,11.99,4.6,23.91,8.94,35.42,12.9,2.09,.72,3.2,3,2.48,5.08-.57,1.66-2.12,2.7-3.78,2.7Zm416.44-26.59c-1.33,0-2.63-.66-3.39-1.87-1.18-1.87-.61-4.34,1.26-5.52,14.43-9.07,29.95-19.59,48.85-33.1,1.8-1.28,4.29-.87,5.58,.93,1.29,1.8,.87,4.3-.93,5.58-19.03,13.6-34.68,24.2-49.25,33.36-.66,.42-1.4,.61-2.12,.61Zm-509.62-6.26c-.39,0-.78-.06-1.18-.18-18.86-5.8-38.03-10.97-56.96-15.38-2.15-.5-3.49-2.65-2.99-4.8s2.65-3.49,4.8-2.99c19.11,4.45,38.46,9.68,57.5,15.53,2.11,.65,3.3,2.89,2.65,5-.53,1.72-2.11,2.83-3.82,2.83Zm-447.82-5.37c-1.7,0-3.28-1.09-3.82-2.8-.66-2.11,.51-4.35,2.62-5.01,18.5-5.8,37.91-10.9,57.69-15.16,2.15-.46,4.29,.91,4.75,3.07,.46,2.16-.91,4.29-3.07,4.75-19.54,4.21-38.71,9.25-56.98,14.97-.4,.12-.8,.18-1.2,.18Zm351.9-18.13c-.24,0-.48-.02-.72-.07-19.37-3.55-39.01-6.4-58.37-8.48-2.2-.24-3.79-2.21-3.55-4.4,.24-2.2,2.22-3.78,4.4-3.55,19.55,2.1,39.39,4.98,58.96,8.56,2.17,.4,3.61,2.48,3.21,4.65-.35,1.93-2.04,3.28-3.93,3.28Zm-255.71-4.15c-1.94,0-3.64-1.41-3.95-3.38-.34-2.18,1.15-4.23,3.33-4.57,19.44-3.05,39.36-5.34,59.22-6.82,2.2-.16,4.12,1.49,4.29,3.69,.16,2.2-1.49,4.12-3.69,4.29-19.64,1.46-39.35,3.73-58.57,6.74-.21,.03-.42,.05-.62,.05Zm157.65-7.6c-.08,0-.15,0-.23,0-14.32-.81-28.8-1.22-43.04-1.22-5.28,0-10.64,.06-15.92,.17-.03,0-.06,0-.09,0-2.17,0-3.95-1.74-4-3.92-.05-2.21,1.71-4.04,3.92-4.08,5.33-.11,10.75-.17,16.09-.17,14.39,0,29.03,.41,43.49,1.23,2.21,.12,3.89,2.01,3.77,4.22-.12,2.13-1.88,3.77-3.99,3.77Zm784.63-14.91c-1.23,0-2.45-.57-3.23-1.64-1.3-1.78-.91-4.29,.87-5.59,15.5-11.32,31.52-23.03,48.18-34.66,1.81-1.26,4.31-.82,5.57,.99,1.26,1.81,.82,4.31-.99,5.57-16.59,11.58-32.58,23.26-48.04,34.56-.71,.52-1.54,.77-2.36,.77Zm80.88-56.68c-1.31,0-2.6-.65-3.36-1.83-1.2-1.85-.67-4.33,1.19-5.53,17.69-11.44,34.42-21.41,51.13-30.49,1.94-1.06,4.37-.34,5.42,1.61,1.05,1.94,.34,4.37-1.61,5.42-16.54,8.98-33.09,18.85-50.61,30.18-.67,.43-1.42,.64-2.17,.64Zm86.1-48.12c-1.51,0-2.95-.85-3.63-2.31-.93-2-.07-4.38,1.93-5.32,18.06-8.42,36.62-16,55.17-22.51,2.09-.73,4.37,.37,5.1,2.45,.73,2.08-.37,4.37-2.45,5.1-18.3,6.42-36.62,13.9-54.44,22.21-.55,.26-1.12,.38-1.69,.38Zm92.43-34.19c-1.75,0-3.36-1.16-3.85-2.93-.59-2.13,.65-4.33,2.78-4.93,18.77-5.23,38.31-9.68,58.06-13.23,2.17-.39,4.25,1.05,4.64,3.23,.39,2.17-1.06,4.25-3.23,4.64-19.5,3.5-38.79,7.9-57.32,13.06-.36,.1-.72,.15-1.08,.15Z"/></g><path class="cls-5" d="M808.7,607.29c-10.03,0-20.4-.37-30.8-1.09-2.2-.15-3.87-2.06-3.71-4.27,.15-2.2,2.08-3.87,4.27-3.71,10.22,.71,20.4,1.07,30.25,1.07s19.57-.36,29.04-1.06c2.19-.16,4.12,1.49,4.28,3.69,.16,2.2-1.49,4.12-3.69,4.28-9.66,.72-19.63,1.08-29.63,1.08Zm-70.27-5.45c-.2,0-.39-.01-.59-.04-18.94-2.82-38.85-6.79-59.18-11.81-2.14-.53-3.45-2.7-2.92-4.84,.53-2.14,2.7-3.46,4.84-2.92,20.09,4.96,39.75,8.89,58.44,11.67,2.18,.33,3.69,2.36,3.37,4.55-.29,1.99-2,3.41-3.95,3.41Zm139.13-.7c-1.89,0-3.57-1.35-3.93-3.27-.4-2.17,1.03-4.26,3.2-4.66,19.48-3.61,38.12-8.73,57-15.66,2.07-.76,4.37,.3,5.13,2.38,.76,2.07-.3,4.37-2.38,5.13-19.31,7.08-38.38,12.32-58.3,16.01-.25,.05-.49,.07-.73,.07Zm-236.5-21.63c-.38,0-.77-.06-1.15-.17-18.34-5.52-37.55-11.97-57.09-19.17-2.07-.76-3.13-3.06-2.37-5.14,.76-2.07,3.06-3.13,5.14-2.37,19.39,7.15,38.45,13.55,56.63,19.02,2.12,.64,3.31,2.87,2.68,4.98-.52,1.73-2.11,2.85-3.83,2.85Zm330.87-9.87c-1.48,0-2.91-.83-3.6-2.25-.97-1.99-.14-4.38,1.85-5.35,16.59-8.06,33.54-17.6,51.8-29.17,1.87-1.18,4.34-.63,5.52,1.24,1.18,1.87,.63,4.34-1.24,5.52-18.52,11.73-35.72,21.42-52.58,29.61-.56,.27-1.16,.4-1.75,.4ZM0,555.14c-1.43,0-2.82-.77-3.54-2.13-1.03-1.95-.29-4.37,1.66-5.41,.82-.43,20.44-10.76,56.31-22.63,2.1-.7,4.36,.44,5.05,2.54s-.44,4.36-2.54,5.05c-35.16,11.65-54.88,22.01-55.08,22.11-.6,.32-1.24,.47-1.87,.47Zm546.68-8.63c-.44,0-.89-.07-1.33-.23-18.85-6.64-38.01-12.67-56.96-17.92-2.13-.59-3.38-2.79-2.79-4.92,.59-2.13,2.79-3.38,4.92-2.79,19.12,5.3,38.46,11.39,57.48,18.09,2.08,.73,3.18,3.02,2.44,5.1-.58,1.64-2.12,2.67-3.77,2.67Zm-452.62-25.06c-1.78,0-3.4-1.19-3.87-2.99-.56-2.14,.72-4.32,2.86-4.88,19.13-4.99,38.99-9.23,59.01-12.61,2.18-.37,4.24,1.1,4.61,3.28,.37,2.18-1.1,4.24-3.28,4.61-19.8,3.34-39.42,7.54-58.33,12.47-.34,.09-.68,.13-1.01,.13Zm356.63-2.72c-.29,0-.59-.03-.89-.1-19.45-4.41-39.18-8.14-58.65-11.09-2.18-.33-3.69-2.37-3.36-4.55,.33-2.19,2.36-3.69,4.55-3.36,19.67,2.97,39.59,6.74,59.23,11.19,2.15,.49,3.5,2.63,3.01,4.79-.42,1.86-2.07,3.12-3.9,3.12Zm606.65-.67c-1.26,0-2.51-.6-3.28-1.71-1.26-1.81-.82-4.31,.99-5.57,15.13-10.55,29.9-21.35,45.54-32.78l3.05-2.23c1.78-1.3,4.29-.91,5.59,.87,1.3,1.78,.91,4.29-.87,5.59l-3.05,2.23c-15.68,11.46-30.48,22.27-45.68,32.88-.7,.49-1.5,.72-2.29,.72Zm-864.99-14.69c-2.01,0-3.74-1.51-3.97-3.56-.25-2.2,1.33-4.17,3.53-4.42,19.8-2.22,40.04-3.66,60.16-4.27,2.22-.07,4.05,1.67,4.12,3.88s-1.67,4.05-3.88,4.12c-19.9,.61-39.93,2.03-59.52,4.22-.15,.02-.3,.03-.45,.03Zm159.72-.75c-.13,0-.27,0-.4-.02-19.81-1.98-39.85-3.21-59.56-3.64-2.21-.05-3.96-1.88-3.91-4.09,.05-2.18,1.83-3.91,4-3.91,.03,0,.06,0,.09,0,19.92,.44,40.17,1.68,60.18,3.68,2.2,.22,3.8,2.18,3.58,4.38-.21,2.06-1.95,3.6-3.98,3.6Zm786.32-43.05c-1.25,0-2.48-.58-3.26-1.68-1.28-1.8-.86-4.3,.94-5.58,18.64-13.28,34.45-24.02,49.76-33.81,1.86-1.19,4.33-.65,5.52,1.22,1.19,1.86,.65,4.33-1.22,5.52-15.2,9.72-30.9,20.39-49.43,33.58-.7,.5-1.51,.74-2.32,.74Z"/><g><path class="cls-4" d="M0,595.14c-1.43,0-2.82-.77-3.54-2.13-1.03-1.95-.29-4.37,1.66-5.41,.4-.21,9.93-5.24,27.82-12.32,2.05-.81,4.38,.19,5.19,2.25,.81,2.05-.19,4.38-2.25,5.19-17.43,6.9-26.93,11.9-27.02,11.95-.6,.32-1.24,.47-1.87,.47Z"/><path class="cls-4" d="M798.62,647.17s-.06,0-.1,0c-19.04-.45-39.06-2.2-59.51-5.2-2.19-.32-3.7-2.35-3.38-4.54,.32-2.19,2.34-3.7,4.54-3.38,20.12,2.95,39.82,4.67,58.54,5.12,2.21,.05,3.96,1.89,3.9,4.09-.05,2.18-1.83,3.91-4,3.91Zm39.41-.95c-2.08,0-3.83-1.6-3.99-3.7-.16-2.2,1.49-4.12,3.69-4.28,19.67-1.46,39.08-4.49,57.72-9.01,2.16-.52,4.31,.8,4.83,2.94,.52,2.15-.8,4.31-2.94,4.83-19.06,4.62-38.92,7.72-59.02,9.21-.1,0-.2,.01-.3,.01Zm-137.32-11.25c-.28,0-.56-.03-.84-.09-18.5-3.96-37.91-8.96-57.71-14.86-2.12-.63-3.32-2.86-2.69-4.98s2.86-3.32,4.98-2.69c19.59,5.84,38.8,10.78,57.1,14.7,2.16,.46,3.54,2.59,3.07,4.75-.4,1.88-2.06,3.16-3.91,3.16Zm-95.03-26.88c-.43,0-.87-.07-1.3-.22-11.62-4-23.62-8.37-35.67-13-6.64-2.54-13.38-5.04-20.04-7.41-2.08-.74-3.17-3.03-2.42-5.11,.74-2.08,3.03-3.16,5.11-2.42,6.72,2.4,13.52,4.91,20.21,7.48,11.97,4.59,23.88,8.93,35.42,12.9,2.09,.72,3.2,3,2.48,5.08-.57,1.66-2.12,2.7-3.78,2.7Zm-93.18-32.85c-.39,0-.78-.06-1.18-.18-18.86-5.8-38.03-10.97-56.96-15.38-2.15-.5-3.49-2.65-2.99-4.8s2.65-3.49,4.8-2.99c19.11,4.45,38.46,9.68,57.5,15.53,2.11,.65,3.3,2.89,2.65,5-.53,1.72-2.11,2.83-3.82,2.83Zm-447.82-5.37c-1.7,0-3.28-1.09-3.82-2.8-.66-2.11,.51-4.35,2.62-5.01,18.5-5.8,37.91-10.9,57.69-15.16,2.15-.46,4.29,.91,4.75,3.07,.46,2.16-.91,4.29-3.07,4.75-19.54,4.21-38.71,9.25-56.98,14.97-.4,.12-.8,.18-1.2,.18Zm351.9-18.13c-.24,0-.48-.02-.72-.07-19.37-3.55-39.01-6.4-58.37-8.48-2.2-.24-3.79-2.21-3.55-4.4,.24-2.2,2.2-3.79,4.41-3.55,19.55,2.1,39.39,4.98,58.96,8.56,2.17,.4,3.61,2.48,3.21,4.65-.35,1.93-2.04,3.28-3.93,3.28Zm-255.71-4.15c-1.94,0-3.64-1.41-3.95-3.38-.34-2.18,1.15-4.23,3.33-4.57,19.44-3.05,39.36-5.34,59.22-6.82,2.2-.16,4.12,1.49,4.29,3.69,.16,2.2-1.49,4.12-3.69,4.29-19.64,1.46-39.35,3.73-58.57,6.74-.21,.03-.42,.05-.62,.05Zm157.65-7.6c-.08,0-.15,0-.23,0-14.32-.81-28.8-1.22-43.04-1.22-5.29,0-10.65,.06-15.92,.17-2.18,.05-4.04-1.71-4.08-3.91-.05-2.21,1.71-4.04,3.92-4.08,5.33-.11,10.74-.17,16.09-.17,14.39,0,29.03,.41,43.49,1.23,2.21,.12,3.89,2.01,3.77,4.22-.12,2.13-1.88,3.77-3.99,3.77Z"/></g></svg>